<?xml version="1.0" encoding="utf-8" standalone="no"?>
<!DOCTYPE svg PUBLIC "-//W3C//DTD SVG 1.1//EN"
  "http://www.w3.org/Graphics/SVG/1.1/DTD/svg11.dtd">
<svg xmlns:xlink="http://www.w3.org/1999/xlink" width="432pt" height="432pt" viewBox="0 0 432 432" xmlns="http://www.w3.org/2000/svg" version="1.1">
 <metadata>
  <rdf:RDF xmlns:dc="http://purl.org/dc/elements/1.1/" xmlns:cc="http://creativecommons.org/ns#" xmlns:rdf="http://www.w3.org/1999/02/22-rdf-syntax-ns#">
   <cc:Work>
    <dc:type rdf:resource="http://purl.org/dc/dcmitype/StillImage"/>
    <dc:date>2023-09-28T10:56:03.646048</dc:date>
    <dc:format>image/svg+xml</dc:format>
    <dc:creator>
     <cc:Agent>
      <dc:title>Matplotlib v3.8.0, https://matplotlib.org/</dc:title>
     </cc:Agent>
    </dc:creator>
   </cc:Work>
  </rdf:RDF>
 </metadata>
 <defs>
  <style type="text/css">*{stroke-linejoin: round; stroke-linecap: butt}</style>
 </defs>
 <g id="figure_1">
  <g id="patch_1">
   <path d="M 0 432 
L 432 432 
L 432 0 
L 0 0 
z
" style="fill: #ffffff"/>
  </g>
  <g id="axes_1">
   <g id="patch_2">
    <path d="M 54 384.48 
L 388.8 384.48 
L 388.8 51.84 
L 54 51.84 
z
" style="fill: #ffffff"/>
   </g>
   <g id="PolyCollection_1"/>
   <g id="PolyCollection_2"/>
   <g id="PolyCollection_3"/>
   <g id="PolyCollection_4"/>
   <g id="PolyCollection_5"/>
   <g id="PolyCollection_6"/>
   <g id="PolyCollection_7"/>
   <g id="PolyCollection_8"/>
   <g id="PolyCollection_9"/>
   <g id="PolyCollection_10"/>
   <g id="PolyCollection_11"/>
   <g id="PolyCollection_12"/>
   <g id="PolyCollection_13"/>
   <g id="PolyCollection_14"/>
   <g id="PolyCollection_15"/>
   <g id="PolyCollection_16"/>
   <g id="PolyCollection_17"/>
   <g id="PolyCollection_18"/>
   <g id="PolyCollection_19"/>
   <g id="PolyCollection_20"/>
   <g id="matplotlib.axis_1">
    <g id="xtick_1">
     <g id="line2d_1">
      <defs>
       <path id="m18c44238ba" d="M 0 0 
L 0 3.5 
" style="stroke: #000000; stroke-width: 0.8"/>
      </defs>
      <g>
       <use xlink:href="#m18c44238ba" x="103.036364" y="384.48" style="stroke: #000000; stroke-width: 0.8"/>
      </g>
     </g>
     <g id="text_1">
      <!-- 2 -->
      <g transform="translate(99.855114 399.078438) scale(0.1 -0.1)">
       <defs>
        <path id="DejaVuSans-32" d="M 1228 531 
L 3431 531 
L 3431 0 
L 469 0 
L 469 531 
Q 828 903 1448 1529 
Q 2069 2156 2228 2338 
Q 2531 2678 2651 2914 
Q 2772 3150 2772 3378 
Q 2772 3750 2511 3984 
Q 2250 4219 1831 4219 
Q 1534 4219 1204 4116 
Q 875 4013 500 3803 
L 500 4441 
Q 881 4594 1212 4672 
Q 1544 4750 1819 4750 
Q 2544 4750 2975 4387 
Q 3406 4025 3406 3419 
Q 3406 3131 3298 2873 
Q 3191 2616 2906 2266 
Q 2828 2175 2409 1742 
Q 1991 1309 1228 531 
z
" transform="scale(0.015625)"/>
       </defs>
       <use xlink:href="#DejaVuSans-32"/>
      </g>
     </g>
    </g>
    <g id="xtick_2">
     <g id="line2d_2">
      <g>
       <use xlink:href="#m18c44238ba" x="170.672727" y="384.48" style="stroke: #000000; stroke-width: 0.8"/>
      </g>
     </g>
     <g id="text_2">
      <!-- 4 -->
      <g transform="translate(167.491477 399.078438) scale(0.1 -0.1)">
       <defs>
        <path id="DejaVuSans-34" d="M 2419 4116 
L 825 1625 
L 2419 1625 
L 2419 4116 
z
M 2253 4666 
L 3047 4666 
L 3047 1625 
L 3713 1625 
L 3713 1100 
L 3047 1100 
L 3047 0 
L 2419 0 
L 2419 1100 
L 313 1100 
L 313 1709 
L 2253 4666 
z
" transform="scale(0.015625)"/>
       </defs>
       <use xlink:href="#DejaVuSans-34"/>
      </g>
     </g>
    </g>
    <g id="xtick_3">
     <g id="line2d_3">
      <g>
       <use xlink:href="#m18c44238ba" x="238.309091" y="384.48" style="stroke: #000000; stroke-width: 0.8"/>
      </g>
     </g>
     <g id="text_3">
      <!-- 6 -->
      <g transform="translate(235.127841 399.078438) scale(0.1 -0.1)">
       <defs>
        <path id="DejaVuSans-36" d="M 2113 2584 
Q 1688 2584 1439 2293 
Q 1191 2003 1191 1497 
Q 1191 994 1439 701 
Q 1688 409 2113 409 
Q 2538 409 2786 701 
Q 3034 994 3034 1497 
Q 3034 2003 2786 2293 
Q 2538 2584 2113 2584 
z
M 3366 4563 
L 3366 3988 
Q 3128 4100 2886 4159 
Q 2644 4219 2406 4219 
Q 1781 4219 1451 3797 
Q 1122 3375 1075 2522 
Q 1259 2794 1537 2939 
Q 1816 3084 2150 3084 
Q 2853 3084 3261 2657 
Q 3669 2231 3669 1497 
Q 3669 778 3244 343 
Q 2819 -91 2113 -91 
Q 1303 -91 875 529 
Q 447 1150 447 2328 
Q 447 3434 972 4092 
Q 1497 4750 2381 4750 
Q 2619 4750 2861 4703 
Q 3103 4656 3366 4563 
z
" transform="scale(0.015625)"/>
       </defs>
       <use xlink:href="#DejaVuSans-36"/>
      </g>
     </g>
    </g>
    <g id="xtick_4">
     <g id="line2d_4">
      <g>
       <use xlink:href="#m18c44238ba" x="305.945455" y="384.48" style="stroke: #000000; stroke-width: 0.8"/>
      </g>
     </g>
     <g id="text_4">
      <!-- 8 -->
      <g transform="translate(302.764205 399.078438) scale(0.1 -0.1)">
       <defs>
        <path id="DejaVuSans-38" d="M 2034 2216 
Q 1584 2216 1326 1975 
Q 1069 1734 1069 1313 
Q 1069 891 1326 650 
Q 1584 409 2034 409 
Q 2484 409 2743 651 
Q 3003 894 3003 1313 
Q 3003 1734 2745 1975 
Q 2488 2216 2034 2216 
z
M 1403 2484 
Q 997 2584 770 2862 
Q 544 3141 544 3541 
Q 544 4100 942 4425 
Q 1341 4750 2034 4750 
Q 2731 4750 3128 4425 
Q 3525 4100 3525 3541 
Q 3525 3141 3298 2862 
Q 3072 2584 2669 2484 
Q 3125 2378 3379 2068 
Q 3634 1759 3634 1313 
Q 3634 634 3220 271 
Q 2806 -91 2034 -91 
Q 1263 -91 848 271 
Q 434 634 434 1313 
Q 434 1759 690 2068 
Q 947 2378 1403 2484 
z
M 1172 3481 
Q 1172 3119 1398 2916 
Q 1625 2713 2034 2713 
Q 2441 2713 2670 2916 
Q 2900 3119 2900 3481 
Q 2900 3844 2670 4047 
Q 2441 4250 2034 4250 
Q 1625 4250 1398 4047 
Q 1172 3844 1172 3481 
z
" transform="scale(0.015625)"/>
       </defs>
       <use xlink:href="#DejaVuSans-38"/>
      </g>
     </g>
    </g>
    <g id="xtick_5">
     <g id="line2d_5">
      <g>
       <use xlink:href="#m18c44238ba" x="373.581818" y="384.48" style="stroke: #000000; stroke-width: 0.8"/>
      </g>
     </g>
     <g id="text_5">
      <!-- 10 -->
      <g transform="translate(367.219318 399.078438) scale(0.1 -0.1)">
       <defs>
        <path id="DejaVuSans-31" d="M 794 531 
L 1825 531 
L 1825 4091 
L 703 3866 
L 703 4441 
L 1819 4666 
L 2450 4666 
L 2450 531 
L 3481 531 
L 3481 0 
L 794 0 
L 794 531 
z
" transform="scale(0.015625)"/>
        <path id="DejaVuSans-30" d="M 2034 4250 
Q 1547 4250 1301 3770 
Q 1056 3291 1056 2328 
Q 1056 1369 1301 889 
Q 1547 409 2034 409 
Q 2525 409 2770 889 
Q 3016 1369 3016 2328 
Q 3016 3291 2770 3770 
Q 2525 4250 2034 4250 
z
M 2034 4750 
Q 2819 4750 3233 4129 
Q 3647 3509 3647 2328 
Q 3647 1150 3233 529 
Q 2819 -91 2034 -91 
Q 1250 -91 836 529 
Q 422 1150 422 2328 
Q 422 3509 836 4129 
Q 1250 4750 2034 4750 
z
" transform="scale(0.015625)"/>
       </defs>
       <use xlink:href="#DejaVuSans-31"/>
       <use xlink:href="#DejaVuSans-30" x="63.623047"/>
      </g>
     </g>
    </g>
    <g id="text_6">
     <!-- Resolution -->
     <g transform="translate(195.275 412.756563) scale(0.1 -0.1)">
      <defs>
       <path id="DejaVuSans-52" d="M 2841 2188 
Q 3044 2119 3236 1894 
Q 3428 1669 3622 1275 
L 4263 0 
L 3584 0 
L 2988 1197 
Q 2756 1666 2539 1819 
Q 2322 1972 1947 1972 
L 1259 1972 
L 1259 0 
L 628 0 
L 628 4666 
L 2053 4666 
Q 2853 4666 3247 4331 
Q 3641 3997 3641 3322 
Q 3641 2881 3436 2590 
Q 3231 2300 2841 2188 
z
M 1259 4147 
L 1259 2491 
L 2053 2491 
Q 2509 2491 2742 2702 
Q 2975 2913 2975 3322 
Q 2975 3731 2742 3939 
Q 2509 4147 2053 4147 
L 1259 4147 
z
" transform="scale(0.015625)"/>
       <path id="DejaVuSans-65" d="M 3597 1894 
L 3597 1613 
L 953 1613 
Q 991 1019 1311 708 
Q 1631 397 2203 397 
Q 2534 397 2845 478 
Q 3156 559 3463 722 
L 3463 178 
Q 3153 47 2828 -22 
Q 2503 -91 2169 -91 
Q 1331 -91 842 396 
Q 353 884 353 1716 
Q 353 2575 817 3079 
Q 1281 3584 2069 3584 
Q 2775 3584 3186 3129 
Q 3597 2675 3597 1894 
z
M 3022 2063 
Q 3016 2534 2758 2815 
Q 2500 3097 2075 3097 
Q 1594 3097 1305 2825 
Q 1016 2553 972 2059 
L 3022 2063 
z
" transform="scale(0.015625)"/>
       <path id="DejaVuSans-73" d="M 2834 3397 
L 2834 2853 
Q 2591 2978 2328 3040 
Q 2066 3103 1784 3103 
Q 1356 3103 1142 2972 
Q 928 2841 928 2578 
Q 928 2378 1081 2264 
Q 1234 2150 1697 2047 
L 1894 2003 
Q 2506 1872 2764 1633 
Q 3022 1394 3022 966 
Q 3022 478 2636 193 
Q 2250 -91 1575 -91 
Q 1294 -91 989 -36 
Q 684 19 347 128 
L 347 722 
Q 666 556 975 473 
Q 1284 391 1588 391 
Q 1994 391 2212 530 
Q 2431 669 2431 922 
Q 2431 1156 2273 1281 
Q 2116 1406 1581 1522 
L 1381 1569 
Q 847 1681 609 1914 
Q 372 2147 372 2553 
Q 372 3047 722 3315 
Q 1072 3584 1716 3584 
Q 2034 3584 2315 3537 
Q 2597 3491 2834 3397 
z
" transform="scale(0.015625)"/>
       <path id="DejaVuSans-6f" d="M 1959 3097 
Q 1497 3097 1228 2736 
Q 959 2375 959 1747 
Q 959 1119 1226 758 
Q 1494 397 1959 397 
Q 2419 397 2687 759 
Q 2956 1122 2956 1747 
Q 2956 2369 2687 2733 
Q 2419 3097 1959 3097 
z
M 1959 3584 
Q 2709 3584 3137 3096 
Q 3566 2609 3566 1747 
Q 3566 888 3137 398 
Q 2709 -91 1959 -91 
Q 1206 -91 779 398 
Q 353 888 353 1747 
Q 353 2609 779 3096 
Q 1206 3584 1959 3584 
z
" transform="scale(0.015625)"/>
       <path id="DejaVuSans-6c" d="M 603 4863 
L 1178 4863 
L 1178 0 
L 603 0 
L 603 4863 
z
" transform="scale(0.015625)"/>
       <path id="DejaVuSans-75" d="M 544 1381 
L 544 3500 
L 1119 3500 
L 1119 1403 
Q 1119 906 1312 657 
Q 1506 409 1894 409 
Q 2359 409 2629 706 
Q 2900 1003 2900 1516 
L 2900 3500 
L 3475 3500 
L 3475 0 
L 2900 0 
L 2900 538 
Q 2691 219 2414 64 
Q 2138 -91 1772 -91 
Q 1169 -91 856 284 
Q 544 659 544 1381 
z
M 1991 3584 
L 1991 3584 
z
" transform="scale(0.015625)"/>
       <path id="DejaVuSans-74" d="M 1172 4494 
L 1172 3500 
L 2356 3500 
L 2356 3053 
L 1172 3053 
L 1172 1153 
Q 1172 725 1289 603 
Q 1406 481 1766 481 
L 2356 481 
L 2356 0 
L 1766 0 
Q 1100 0 847 248 
Q 594 497 594 1153 
L 594 3053 
L 172 3053 
L 172 3500 
L 594 3500 
L 594 4494 
L 1172 4494 
z
" transform="scale(0.015625)"/>
       <path id="DejaVuSans-69" d="M 603 3500 
L 1178 3500 
L 1178 0 
L 603 0 
L 603 3500 
z
M 603 4863 
L 1178 4863 
L 1178 4134 
L 603 4134 
L 603 4863 
z
" transform="scale(0.015625)"/>
       <path id="DejaVuSans-6e" d="M 3513 2113 
L 3513 0 
L 2938 0 
L 2938 2094 
Q 2938 2591 2744 2837 
Q 2550 3084 2163 3084 
Q 1697 3084 1428 2787 
Q 1159 2491 1159 1978 
L 1159 0 
L 581 0 
L 581 3500 
L 1159 3500 
L 1159 2956 
Q 1366 3272 1645 3428 
Q 1925 3584 2291 3584 
Q 2894 3584 3203 3211 
Q 3513 2838 3513 2113 
z
" transform="scale(0.015625)"/>
      </defs>
      <use xlink:href="#DejaVuSans-52"/>
      <use xlink:href="#DejaVuSans-65" x="64.982422"/>
      <use xlink:href="#DejaVuSans-73" x="126.505859"/>
      <use xlink:href="#DejaVuSans-6f" x="178.605469"/>
      <use xlink:href="#DejaVuSans-6c" x="239.787109"/>
      <use xlink:href="#DejaVuSans-75" x="267.570312"/>
      <use xlink:href="#DejaVuSans-74" x="330.949219"/>
      <use xlink:href="#DejaVuSans-69" x="370.158203"/>
      <use xlink:href="#DejaVuSans-6f" x="397.941406"/>
      <use xlink:href="#DejaVuSans-6e" x="459.123047"/>
     </g>
    </g>
   </g>
   <g id="matplotlib.axis_2">
    <g id="ytick_1">
     <g id="line2d_6">
      <defs>
       <path id="mde23aba736" d="M 0 0 
L -3.5 0 
" style="stroke: #000000; stroke-width: 0.8"/>
      </defs>
      <g>
       <use xlink:href="#mde23aba736" x="54" y="353.08521" style="stroke: #000000; stroke-width: 0.8"/>
      </g>
     </g>
     <g id="text_7">
      <!-- 10 -->
      <g transform="translate(34.275 356.884429) scale(0.1 -0.1)">
       <use xlink:href="#DejaVuSans-31"/>
       <use xlink:href="#DejaVuSans-30" x="63.623047"/>
      </g>
     </g>
    </g>
    <g id="ytick_2">
     <g id="line2d_7">
      <g>
       <use xlink:href="#mde23aba736" x="54" y="314.726673" style="stroke: #000000; stroke-width: 0.8"/>
      </g>
     </g>
     <g id="text_8">
      <!-- 20 -->
      <g transform="translate(34.275 318.525892) scale(0.1 -0.1)">
       <use xlink:href="#DejaVuSans-32"/>
       <use xlink:href="#DejaVuSans-30" x="63.623047"/>
      </g>
     </g>
    </g>
    <g id="ytick_3">
     <g id="line2d_8">
      <g>
       <use xlink:href="#mde23aba736" x="54" y="276.368136" style="stroke: #000000; stroke-width: 0.8"/>
      </g>
     </g>
     <g id="text_9">
      <!-- 30 -->
      <g transform="translate(34.275 280.167355) scale(0.1 -0.1)">
       <defs>
        <path id="DejaVuSans-33" d="M 2597 2516 
Q 3050 2419 3304 2112 
Q 3559 1806 3559 1356 
Q 3559 666 3084 287 
Q 2609 -91 1734 -91 
Q 1441 -91 1130 -33 
Q 819 25 488 141 
L 488 750 
Q 750 597 1062 519 
Q 1375 441 1716 441 
Q 2309 441 2620 675 
Q 2931 909 2931 1356 
Q 2931 1769 2642 2001 
Q 2353 2234 1838 2234 
L 1294 2234 
L 1294 2753 
L 1863 2753 
Q 2328 2753 2575 2939 
Q 2822 3125 2822 3475 
Q 2822 3834 2567 4026 
Q 2313 4219 1838 4219 
Q 1578 4219 1281 4162 
Q 984 4106 628 3988 
L 628 4550 
Q 988 4650 1302 4700 
Q 1616 4750 1894 4750 
Q 2613 4750 3031 4423 
Q 3450 4097 3450 3541 
Q 3450 3153 3228 2886 
Q 3006 2619 2597 2516 
z
" transform="scale(0.015625)"/>
       </defs>
       <use xlink:href="#DejaVuSans-33"/>
       <use xlink:href="#DejaVuSans-30" x="63.623047"/>
      </g>
     </g>
    </g>
    <g id="ytick_4">
     <g id="line2d_9">
      <g>
       <use xlink:href="#mde23aba736" x="54" y="238.009599" style="stroke: #000000; stroke-width: 0.8"/>
      </g>
     </g>
     <g id="text_10">
      <!-- 40 -->
      <g transform="translate(34.275 241.808817) scale(0.1 -0.1)">
       <use xlink:href="#DejaVuSans-34"/>
       <use xlink:href="#DejaVuSans-30" x="63.623047"/>
      </g>
     </g>
    </g>
    <g id="ytick_5">
     <g id="line2d_10">
      <g>
       <use xlink:href="#mde23aba736" x="54" y="199.651061" style="stroke: #000000; stroke-width: 0.8"/>
      </g>
     </g>
     <g id="text_11">
      <!-- 50 -->
      <g transform="translate(34.275 203.45028) scale(0.1 -0.1)">
       <defs>
        <path id="DejaVuSans-35" d="M 691 4666 
L 3169 4666 
L 3169 4134 
L 1269 4134 
L 1269 2991 
Q 1406 3038 1543 3061 
Q 1681 3084 1819 3084 
Q 2600 3084 3056 2656 
Q 3513 2228 3513 1497 
Q 3513 744 3044 326 
Q 2575 -91 1722 -91 
Q 1428 -91 1123 -41 
Q 819 9 494 109 
L 494 744 
Q 775 591 1075 516 
Q 1375 441 1709 441 
Q 2250 441 2565 725 
Q 2881 1009 2881 1497 
Q 2881 1984 2565 2268 
Q 2250 2553 1709 2553 
Q 1456 2553 1204 2497 
Q 953 2441 691 2322 
L 691 4666 
z
" transform="scale(0.015625)"/>
       </defs>
       <use xlink:href="#DejaVuSans-35"/>
       <use xlink:href="#DejaVuSans-30" x="63.623047"/>
      </g>
     </g>
    </g>
    <g id="ytick_6">
     <g id="line2d_11">
      <g>
       <use xlink:href="#mde23aba736" x="54" y="161.292524" style="stroke: #000000; stroke-width: 0.8"/>
      </g>
     </g>
     <g id="text_12">
      <!-- 60 -->
      <g transform="translate(34.275 165.091743) scale(0.1 -0.1)">
       <use xlink:href="#DejaVuSans-36"/>
       <use xlink:href="#DejaVuSans-30" x="63.623047"/>
      </g>
     </g>
    </g>
    <g id="ytick_7">
     <g id="line2d_12">
      <g>
       <use xlink:href="#mde23aba736" x="54" y="122.933987" style="stroke: #000000; stroke-width: 0.8"/>
      </g>
     </g>
     <g id="text_13">
      <!-- 70 -->
      <g transform="translate(34.275 126.733206) scale(0.1 -0.1)">
       <defs>
        <path id="DejaVuSans-37" d="M 525 4666 
L 3525 4666 
L 3525 4397 
L 1831 0 
L 1172 0 
L 2766 4134 
L 525 4134 
L 525 4666 
z
" transform="scale(0.015625)"/>
       </defs>
       <use xlink:href="#DejaVuSans-37"/>
       <use xlink:href="#DejaVuSans-30" x="63.623047"/>
      </g>
     </g>
    </g>
    <g id="ytick_8">
     <g id="line2d_13">
      <g>
       <use xlink:href="#mde23aba736" x="54" y="84.57545" style="stroke: #000000; stroke-width: 0.8"/>
      </g>
     </g>
     <g id="text_14">
      <!-- 80 -->
      <g transform="translate(34.275 88.374668) scale(0.1 -0.1)">
       <use xlink:href="#DejaVuSans-38"/>
       <use xlink:href="#DejaVuSans-30" x="63.623047"/>
      </g>
     </g>
    </g>
    <g id="text_15">
     <!-- Area symmetric difference ($km^2$) -->
     <g transform="translate(28.175 300.66) rotate(-90) scale(0.1 -0.1)">
      <defs>
       <path id="DejaVuSans-41" d="M 2188 4044 
L 1331 1722 
L 3047 1722 
L 2188 4044 
z
M 1831 4666 
L 2547 4666 
L 4325 0 
L 3669 0 
L 3244 1197 
L 1141 1197 
L 716 0 
L 50 0 
L 1831 4666 
z
" transform="scale(0.015625)"/>
       <path id="DejaVuSans-72" d="M 2631 2963 
Q 2534 3019 2420 3045 
Q 2306 3072 2169 3072 
Q 1681 3072 1420 2755 
Q 1159 2438 1159 1844 
L 1159 0 
L 581 0 
L 581 3500 
L 1159 3500 
L 1159 2956 
Q 1341 3275 1631 3429 
Q 1922 3584 2338 3584 
Q 2397 3584 2469 3576 
Q 2541 3569 2628 3553 
L 2631 2963 
z
" transform="scale(0.015625)"/>
       <path id="DejaVuSans-61" d="M 2194 1759 
Q 1497 1759 1228 1600 
Q 959 1441 959 1056 
Q 959 750 1161 570 
Q 1363 391 1709 391 
Q 2188 391 2477 730 
Q 2766 1069 2766 1631 
L 2766 1759 
L 2194 1759 
z
M 3341 1997 
L 3341 0 
L 2766 0 
L 2766 531 
Q 2569 213 2275 61 
Q 1981 -91 1556 -91 
Q 1019 -91 701 211 
Q 384 513 384 1019 
Q 384 1609 779 1909 
Q 1175 2209 1959 2209 
L 2766 2209 
L 2766 2266 
Q 2766 2663 2505 2880 
Q 2244 3097 1772 3097 
Q 1472 3097 1187 3025 
Q 903 2953 641 2809 
L 641 3341 
Q 956 3463 1253 3523 
Q 1550 3584 1831 3584 
Q 2591 3584 2966 3190 
Q 3341 2797 3341 1997 
z
" transform="scale(0.015625)"/>
       <path id="DejaVuSans-20" transform="scale(0.015625)"/>
       <path id="DejaVuSans-79" d="M 2059 -325 
Q 1816 -950 1584 -1140 
Q 1353 -1331 966 -1331 
L 506 -1331 
L 506 -850 
L 844 -850 
Q 1081 -850 1212 -737 
Q 1344 -625 1503 -206 
L 1606 56 
L 191 3500 
L 800 3500 
L 1894 763 
L 2988 3500 
L 3597 3500 
L 2059 -325 
z
" transform="scale(0.015625)"/>
       <path id="DejaVuSans-6d" d="M 3328 2828 
Q 3544 3216 3844 3400 
Q 4144 3584 4550 3584 
Q 5097 3584 5394 3201 
Q 5691 2819 5691 2113 
L 5691 0 
L 5113 0 
L 5113 2094 
Q 5113 2597 4934 2840 
Q 4756 3084 4391 3084 
Q 3944 3084 3684 2787 
Q 3425 2491 3425 1978 
L 3425 0 
L 2847 0 
L 2847 2094 
Q 2847 2600 2669 2842 
Q 2491 3084 2119 3084 
Q 1678 3084 1418 2786 
Q 1159 2488 1159 1978 
L 1159 0 
L 581 0 
L 581 3500 
L 1159 3500 
L 1159 2956 
Q 1356 3278 1631 3431 
Q 1906 3584 2284 3584 
Q 2666 3584 2933 3390 
Q 3200 3197 3328 2828 
z
" transform="scale(0.015625)"/>
       <path id="DejaVuSans-63" d="M 3122 3366 
L 3122 2828 
Q 2878 2963 2633 3030 
Q 2388 3097 2138 3097 
Q 1578 3097 1268 2742 
Q 959 2388 959 1747 
Q 959 1106 1268 751 
Q 1578 397 2138 397 
Q 2388 397 2633 464 
Q 2878 531 3122 666 
L 3122 134 
Q 2881 22 2623 -34 
Q 2366 -91 2075 -91 
Q 1284 -91 818 406 
Q 353 903 353 1747 
Q 353 2603 823 3093 
Q 1294 3584 2113 3584 
Q 2378 3584 2631 3529 
Q 2884 3475 3122 3366 
z
" transform="scale(0.015625)"/>
       <path id="DejaVuSans-64" d="M 2906 2969 
L 2906 4863 
L 3481 4863 
L 3481 0 
L 2906 0 
L 2906 525 
Q 2725 213 2448 61 
Q 2172 -91 1784 -91 
Q 1150 -91 751 415 
Q 353 922 353 1747 
Q 353 2572 751 3078 
Q 1150 3584 1784 3584 
Q 2172 3584 2448 3432 
Q 2725 3281 2906 2969 
z
M 947 1747 
Q 947 1113 1208 752 
Q 1469 391 1925 391 
Q 2381 391 2643 752 
Q 2906 1113 2906 1747 
Q 2906 2381 2643 2742 
Q 2381 3103 1925 3103 
Q 1469 3103 1208 2742 
Q 947 2381 947 1747 
z
" transform="scale(0.015625)"/>
       <path id="DejaVuSans-66" d="M 2375 4863 
L 2375 4384 
L 1825 4384 
Q 1516 4384 1395 4259 
Q 1275 4134 1275 3809 
L 1275 3500 
L 2222 3500 
L 2222 3053 
L 1275 3053 
L 1275 0 
L 697 0 
L 697 3053 
L 147 3053 
L 147 3500 
L 697 3500 
L 697 3744 
Q 697 4328 969 4595 
Q 1241 4863 1831 4863 
L 2375 4863 
z
" transform="scale(0.015625)"/>
       <path id="DejaVuSans-28" d="M 1984 4856 
Q 1566 4138 1362 3434 
Q 1159 2731 1159 2009 
Q 1159 1288 1364 580 
Q 1569 -128 1984 -844 
L 1484 -844 
Q 1016 -109 783 600 
Q 550 1309 550 2009 
Q 550 2706 781 3412 
Q 1013 4119 1484 4856 
L 1984 4856 
z
" transform="scale(0.015625)"/>
       <path id="DejaVuSans-Oblique-6b" d="M 1172 4863 
L 1747 4863 
L 1197 2028 
L 3169 3500 
L 3916 3500 
L 1716 1825 
L 3322 0 
L 2625 0 
L 1131 1709 
L 800 0 
L 225 0 
L 1172 4863 
z
" transform="scale(0.015625)"/>
       <path id="DejaVuSans-Oblique-6d" d="M 5747 2113 
L 5338 0 
L 4763 0 
L 5166 2094 
Q 5191 2228 5203 2325 
Q 5216 2422 5216 2491 
Q 5216 2772 5059 2928 
Q 4903 3084 4622 3084 
Q 4203 3084 3875 2770 
Q 3547 2456 3450 1953 
L 3066 0 
L 2491 0 
L 2900 2094 
Q 2925 2209 2937 2307 
Q 2950 2406 2950 2484 
Q 2950 2769 2794 2926 
Q 2638 3084 2363 3084 
Q 1938 3084 1609 2770 
Q 1281 2456 1184 1953 
L 800 0 
L 225 0 
L 909 3500 
L 1484 3500 
L 1375 2956 
Q 1609 3263 1923 3423 
Q 2238 3584 2597 3584 
Q 2978 3584 3223 3384 
Q 3469 3184 3519 2828 
Q 3781 3197 4126 3390 
Q 4472 3584 4856 3584 
Q 5306 3584 5551 3325 
Q 5797 3066 5797 2591 
Q 5797 2488 5784 2364 
Q 5772 2241 5747 2113 
z
" transform="scale(0.015625)"/>
       <path id="DejaVuSans-29" d="M 513 4856 
L 1013 4856 
Q 1481 4119 1714 3412 
Q 1947 2706 1947 2009 
Q 1947 1309 1714 600 
Q 1481 -109 1013 -844 
L 513 -844 
Q 928 -128 1133 580 
Q 1338 1288 1338 2009 
Q 1338 2731 1133 3434 
Q 928 4138 513 4856 
z
" transform="scale(0.015625)"/>
      </defs>
      <use xlink:href="#DejaVuSans-41" transform="translate(0 0.765625)"/>
      <use xlink:href="#DejaVuSans-72" transform="translate(68.408203 0.765625)"/>
      <use xlink:href="#DejaVuSans-65" transform="translate(109.521484 0.765625)"/>
      <use xlink:href="#DejaVuSans-61" transform="translate(171.044922 0.765625)"/>
      <use xlink:href="#DejaVuSans-20" transform="translate(232.324219 0.765625)"/>
      <use xlink:href="#DejaVuSans-73" transform="translate(264.111328 0.765625)"/>
      <use xlink:href="#DejaVuSans-79" transform="translate(316.210938 0.765625)"/>
      <use xlink:href="#DejaVuSans-6d" transform="translate(375.390625 0.765625)"/>
      <use xlink:href="#DejaVuSans-6d" transform="translate(472.802734 0.765625)"/>
      <use xlink:href="#DejaVuSans-65" transform="translate(570.214844 0.765625)"/>
      <use xlink:href="#DejaVuSans-74" transform="translate(631.738281 0.765625)"/>
      <use xlink:href="#DejaVuSans-72" transform="translate(670.947266 0.765625)"/>
      <use xlink:href="#DejaVuSans-69" transform="translate(712.060547 0.765625)"/>
      <use xlink:href="#DejaVuSans-63" transform="translate(739.84375 0.765625)"/>
      <use xlink:href="#DejaVuSans-20" transform="translate(794.824219 0.765625)"/>
      <use xlink:href="#DejaVuSans-64" transform="translate(826.611328 0.765625)"/>
      <use xlink:href="#DejaVuSans-69" transform="translate(890.087891 0.765625)"/>
      <use xlink:href="#DejaVuSans-66" transform="translate(917.871094 0.765625)"/>
      <use xlink:href="#DejaVuSans-66" transform="translate(953.076172 0.765625)"/>
      <use xlink:href="#DejaVuSans-65" transform="translate(988.28125 0.765625)"/>
      <use xlink:href="#DejaVuSans-72" transform="translate(1049.804688 0.765625)"/>
      <use xlink:href="#DejaVuSans-65" transform="translate(1090.917969 0.765625)"/>
      <use xlink:href="#DejaVuSans-6e" transform="translate(1152.441406 0.765625)"/>
      <use xlink:href="#DejaVuSans-63" transform="translate(1215.820312 0.765625)"/>
      <use xlink:href="#DejaVuSans-65" transform="translate(1270.800781 0.765625)"/>
      <use xlink:href="#DejaVuSans-20" transform="translate(1332.324219 0.765625)"/>
      <use xlink:href="#DejaVuSans-28" transform="translate(1364.111328 0.765625)"/>
      <use xlink:href="#DejaVuSans-Oblique-6b" transform="translate(1403.125 0.765625)"/>
      <use xlink:href="#DejaVuSans-Oblique-6d" transform="translate(1461.035156 0.765625)"/>
      <use xlink:href="#DejaVuSans-32" transform="translate(1563.097161 39.046875) scale(0.7)"/>
      <use xlink:href="#DejaVuSans-29" transform="translate(1610.367669 0.765625)"/>
     </g>
    </g>
   </g>
   <g id="line2d_14">
    <path d="M 69.218182 68.210539 
L 86.127273 221.954083 
L 103.036364 252.679775 
L 119.945455 294.511801 
L 136.854545 299.663863 
L 153.763636 301.255742 
L 170.672727 304.244409 
L 187.581818 305.448643 
L 204.490909 298.554273 
L 221.4 297.121461 
L 238.309091 298.323323 
L 255.218182 293.665247 
L 272.127273 284.669184 
L 289.036364 287.773679 
L 305.945455 280.901567 
L 322.854545 277.164024 
L 339.763636 276.476927 
L 356.672727 272.34515 
L 373.581818 271.255508 
" clip-path="url(#p99a037ae0f)" style="fill: none; stroke: #f5d795; stroke-width: 1.5; stroke-linecap: square"/>
   </g>
   <g id="line2d_15">
    <path d="M 69.218182 146.704931 
L 86.127273 221.876351 
L 103.036364 241.634123 
L 119.945455 298.753197 
L 136.854545 300.039285 
L 153.763636 305.50575 
L 170.672727 303.506578 
L 187.581818 296.765076 
L 204.490909 300.537185 
L 221.4 297.607559 
L 238.309091 297.29032 
L 255.218182 293.897262 
L 272.127273 294.658922 
L 289.036364 284.007659 
L 305.945455 286.157435 
L 322.854545 282.465076 
L 339.763636 285.039399 
L 356.672727 276.396982 
L 373.581818 273.862654 
" clip-path="url(#p99a037ae0f)" style="fill: none; stroke: #f4d38a; stroke-width: 1.5; stroke-linecap: square"/>
   </g>
   <g id="line2d_16">
    <path d="M 69.218182 146.318294 
L 86.127273 222.402517 
L 103.036364 258.236024 
L 119.945455 290.894153 
L 136.854545 304.508367 
L 153.763636 307.152053 
L 170.672727 308.328842 
L 187.581818 305.696568 
L 204.490909 308.376797 
L 221.4 295.557049 
L 238.309091 296.008453 
L 255.218182 295.163204 
L 272.127273 292.182934 
L 289.036364 288.902168 
L 305.945455 279.735883 
L 322.854545 279.438741 
L 339.763636 277.71245 
L 356.672727 276.693873 
L 373.581818 278.060701 
" clip-path="url(#p99a037ae0f)" style="fill: none; stroke: #f1cb75; stroke-width: 1.5; stroke-linecap: square"/>
   </g>
   <g id="line2d_17">
    <path d="M 69.218182 67.564123 
L 86.127273 208.58521 
L 103.036364 254.090898 
L 119.945455 285.550849 
L 136.854545 301.577468 
L 153.763636 304.713103 
L 170.672727 297.562675 
L 187.581818 308.035082 
L 204.490909 305.018746 
L 221.4 296.898935 
L 238.309091 290.868131 
L 255.218182 298.537934 
L 272.127273 290.244405 
L 289.036364 286.547292 
L 305.945455 284.65801 
L 322.854545 277.630239 
L 339.763636 280.741335 
L 356.672727 272.227215 
L 373.581818 276.456113 
" clip-path="url(#p99a037ae0f)" style="fill: none; stroke: #efc360; stroke-width: 1.5; stroke-linecap: square"/>
   </g>
   <g id="line2d_18">
    <path d="M 69.218182 111.254435 
L 86.127273 221.635035 
L 103.036364 253.85279 
L 119.945455 292.383576 
L 136.854545 300.625364 
L 153.763636 305.085945 
L 170.672727 311.700756 
L 187.581818 305.521623 
L 204.490909 301.675275 
L 221.4 295.510824 
L 238.309091 301.636775 
L 255.218182 293.870565 
L 272.127273 287.061089 
L 289.036364 284.269321 
L 305.945455 276.90437 
L 322.854545 280.195612 
L 339.763636 278.10686 
L 356.672727 274.562863 
L 373.581818 275.649791 
" clip-path="url(#p99a037ae0f)" style="fill: none; stroke: #eebf55; stroke-width: 1.5; stroke-linecap: square"/>
   </g>
   <g id="line2d_19">
    <path d="M 69.218182 109.699549 
L 86.127273 221.443763 
L 103.036364 254.576284 
L 119.945455 287.187326 
L 136.854545 302.035959 
L 153.763636 287.495661 
L 170.672727 306.82956 
L 187.581818 308.062352 
L 204.490909 304.403336 
L 221.4 292.218275 
L 238.309091 291.611217 
L 255.218182 292.509126 
L 272.127273 293.284714 
L 289.036364 287.179501 
L 305.945455 286.234094 
L 322.854545 278.605947 
L 339.763636 279.00344 
L 356.672727 273.669417 
L 373.581818 275.44105 
" clip-path="url(#p99a037ae0f)" style="fill: none; stroke: #ecb740; stroke-width: 1.5; stroke-linecap: square"/>
   </g>
   <g id="line2d_20">
    <path d="M 69.218182 66.96 
L 86.127273 223.297734 
L 103.036364 240.282754 
L 119.945455 293.355367 
L 136.854545 302.382781 
L 153.763636 296.136053 
L 170.672727 296.299427 
L 187.581818 297.290207 
L 204.490909 304.544087 
L 221.4 296.842781 
L 238.309091 303.369244 
L 255.218182 289.921821 
L 272.127273 293.797972 
L 289.036364 285.809078 
L 305.945455 279.195156 
L 322.854545 277.963244 
L 339.763636 278.205836 
L 356.672727 271.880995 
L 373.581818 275.272944 
" clip-path="url(#p99a037ae0f)" style="fill: none; stroke: #eaaf2b; stroke-width: 1.5; stroke-linecap: square"/>
   </g>
   <g id="line2d_21">
    <path d="M 69.218182 67.232588 
L 86.127273 222.296821 
L 103.036364 261.24431 
L 119.945455 283.323844 
L 136.854545 306.235432 
L 153.763636 298.172129 
L 170.672727 300.433857 
L 187.581818 299.831722 
L 204.490909 302.928248 
L 221.4 301.978803 
L 238.309091 294.602611 
L 255.218182 294.848146 
L 272.127273 291.722713 
L 289.036364 284.378762 
L 305.945455 281.607186 
L 322.854545 276.989132 
L 339.763636 277.521203 
L 356.672727 275.658799 
L 373.581818 275.390951 
" clip-path="url(#p99a037ae0f)" style="fill: none; stroke: #e9ab20; stroke-width: 1.5; stroke-linecap: square"/>
   </g>
   <g id="line2d_22">
    <path d="M 69.218182 109.69282 
L 86.127273 222.045247 
L 103.036364 244.892167 
L 119.945455 294.030133 
L 136.854545 293.876984 
L 153.763636 293.228183 
L 170.672727 303.201318 
L 187.581818 304.200491 
L 204.490909 304.4705 
L 221.4 300.069039 
L 238.309091 295.774457 
L 255.218182 291.729443 
L 272.127273 284.590828 
L 289.036364 283.111645 
L 305.945455 283.847562 
L 322.854545 278.361664 
L 339.763636 276.202968 
L 356.672727 278.950742 
L 373.581818 276.482928 
" clip-path="url(#p99a037ae0f)" style="fill: none; stroke: #e7a30b; stroke-width: 1.5; stroke-linecap: square"/>
   </g>
   <g id="line2d_23">
    <path d="M 69.218182 69.495011 
L 86.127273 221.236517 
L 103.036364 253.205375 
L 119.945455 280.560952 
L 136.854545 304.701036 
L 153.763636 312.605016 
L 170.672727 298.017929 
L 187.581818 298.684792 
L 204.490909 304.790883 
L 221.4 308.721959 
L 238.309091 293.344024 
L 255.218182 290.232244 
L 272.127273 293.486092 
L 289.036364 289.87364 
L 305.945455 281.252906 
L 322.854545 278.204924 
L 339.763636 278.023956 
L 356.672727 279.947502 
L 373.581818 275.484897 
" clip-path="url(#p99a037ae0f)" style="fill: none; stroke: #e69f00; stroke-width: 1.5; stroke-linecap: square"/>
   </g>
   <g id="line2d_24">
    <path d="M 69.218182 75.628963 
L 86.127273 230.482239 
L 103.036364 262.660283 
L 119.945455 315.137081 
L 136.854545 326.890179 
L 153.763636 344.253018 
L 170.672727 349.560558 
L 187.581818 359.297724 
L 204.490909 360.12289 
L 221.4 366.914299 
L 238.309091 367.713749 
L 255.218182 367.273747 
L 272.127273 366.769806 
L 289.036364 367.267176 
L 305.945455 366.886267 
L 322.854545 367.257552 
L 339.763636 364.531688 
L 356.672727 363.477857 
L 373.581818 363.4344 
" clip-path="url(#p99a037ae0f)" style="fill: none; stroke-dasharray: 1.5,2.475; stroke-dashoffset: 0; stroke: #b9e0f6; stroke-width: 1.5"/>
   </g>
   <g id="line2d_25">
    <path d="M 69.218182 155.193744 
L 86.127273 230.702344 
L 103.036364 274.973604 
L 119.945455 311.437388 
L 136.854545 322.31984 
L 153.763636 344.483892 
L 170.672727 350.888578 
L 187.581818 356.619931 
L 204.490909 362.912559 
L 221.4 365.370884 
L 238.309091 366.166877 
L 255.218182 366.992773 
L 272.127273 368.18873 
L 289.036364 367.645583 
L 305.945455 368.207083 
L 322.854545 367.224071 
L 339.763636 366.751894 
L 356.672727 366.498116 
L 373.581818 364.445726 
" clip-path="url(#p99a037ae0f)" style="fill: none; stroke-dasharray: 1.5,2.475; stroke-dashoffset: 0; stroke: #b2ddf5; stroke-width: 1.5"/>
   </g>
   <g id="line2d_26">
    <path d="M 69.218182 154.344107 
L 86.127273 230.603534 
L 103.036364 274.359972 
L 119.945455 313.403709 
L 136.854545 326.126982 
L 153.763636 340.90789 
L 170.672727 351.508645 
L 187.581818 359.271744 
L 204.490909 363.917578 
L 221.4 364.809729 
L 238.309091 367.992838 
L 255.218182 367.84659 
L 272.127273 368.672793 
L 289.036364 368.329856 
L 305.945455 366.368973 
L 322.854545 366.686543 
L 339.763636 365.551325 
L 356.672727 364.65051 
L 373.581818 367.365649 
" clip-path="url(#p99a037ae0f)" style="fill: none; stroke-dasharray: 1.5,2.475; stroke-dashoffset: 0; stroke: #a3d6f3; stroke-width: 1.5"/>
   </g>
   <g id="line2d_27">
    <path d="M 69.218182 74.947504 
L 86.127273 216.380141 
L 103.036364 262.836365 
L 119.945455 304.696946 
L 136.854545 328.351056 
L 153.763636 343.247765 
L 170.672727 350.226218 
L 187.581818 360.308471 
L 204.490909 363.851717 
L 221.4 366.253615 
L 238.309091 366.021805 
L 255.218182 369.315275 
L 272.127273 368.355461 
L 289.036364 367.463852 
L 305.945455 367.542408 
L 322.854545 365.830487 
L 339.763636 367.964181 
L 356.672727 363.725792 
L 373.581818 366.158225 
" clip-path="url(#p99a037ae0f)" style="fill: none; stroke-dasharray: 1.5,2.475; stroke-dashoffset: 0; stroke: #95d0f1; stroke-width: 1.5"/>
   </g>
   <g id="line2d_28">
    <path d="M 69.218182 121.760447 
L 86.127273 230.614708 
L 103.036364 272.275626 
L 119.945455 312.162783 
L 136.854545 327.599645 
L 153.763636 341.72659 
L 170.672727 354.804576 
L 187.581818 361.291676 
L 204.490909 362.353347 
L 221.4 366.709576 
L 238.309091 369.01927 
L 255.218182 366.710081 
L 272.127273 366.824462 
L 289.036364 368.200915 
L 305.945455 365.605273 
L 322.854545 367.922965 
L 339.763636 366.249363 
L 356.672727 364.740479 
L 373.581818 365.004918 
" clip-path="url(#p99a037ae0f)" style="fill: none; stroke-dasharray: 1.5,2.475; stroke-dashoffset: 0; stroke: #8ecdf0; stroke-width: 1.5"/>
   </g>
   <g id="line2d_29">
    <path d="M 69.218182 119.890997 
L 86.127273 230.834405 
L 103.036364 262.551603 
L 119.945455 311.979136 
L 136.854545 326.185491 
L 153.763636 338.232783 
L 170.672727 354.748445 
L 187.581818 359.187959 
L 204.490909 362.914401 
L 221.4 361.882039 
L 238.309091 367.956145 
L 255.218182 366.924747 
L 272.127273 366.3265 
L 289.036364 368.02275 
L 305.945455 367.499005 
L 322.854545 366.280462 
L 339.763636 367.166797 
L 356.672727 366.134243 
L 373.581818 365.635664 
" clip-path="url(#p99a037ae0f)" style="fill: none; stroke-dasharray: 1.5,2.475; stroke-dashoffset: 0; stroke: #80c7ee; stroke-width: 1.5"/>
   </g>
   <g id="line2d_30">
    <path d="M 69.218182 75.209805 
L 86.127273 230.985198 
L 103.036364 270.734942 
L 119.945455 311.038564 
L 136.854545 329.547152 
L 153.763636 341.449182 
L 170.672727 352.974457 
L 187.581818 359.116316 
L 204.490909 361.488638 
L 221.4 366.056344 
L 238.309091 368.721921 
L 255.218182 366.146595 
L 272.127273 369.033237 
L 289.036364 368.684173 
L 305.945455 366.073109 
L 322.854545 366.325372 
L 339.763636 366.022964 
L 356.672727 363.856416 
L 373.581818 365.513311 
" clip-path="url(#p99a037ae0f)" style="fill: none; stroke-dasharray: 1.5,2.475; stroke-dashoffset: 0; stroke: #72c1ed; stroke-width: 1.5"/>
   </g>
   <g id="line2d_31">
    <path d="M 69.218182 75.197091 
L 86.127273 230.524994 
L 103.036364 270.621849 
L 119.945455 303.605459 
L 136.854545 328.395893 
L 153.763636 342.846443 
L 170.672727 350.211404 
L 187.581818 358.901294 
L 204.490909 360.083155 
L 221.4 365.804236 
L 238.309091 367.611052 
L 255.218182 367.517963 
L 272.127273 369.211177 
L 289.036364 368.067611 
L 305.945455 367.401863 
L 322.854545 366.26325 
L 339.763636 365.7172 
L 356.672727 364.421577 
L 373.581818 364.844285 
" clip-path="url(#p99a037ae0f)" style="fill: none; stroke-dasharray: 1.5,2.475; stroke-dashoffset: 0; stroke: #6bbdec; stroke-width: 1.5"/>
   </g>
   <g id="line2d_32">
    <path d="M 69.218182 120.770721 
L 86.127273 230.829611 
L 103.036364 253.517699 
L 119.945455 313.950945 
L 136.854545 322.330253 
L 153.763636 341.307606 
L 170.672727 351.424962 
L 187.581818 357.117815 
L 204.490909 361.21087 
L 221.4 363.96239 
L 238.309091 367.218263 
L 255.218182 366.607821 
L 272.127273 366.531223 
L 289.036364 365.182825 
L 305.945455 368.082114 
L 322.854545 366.435336 
L 339.763636 364.711993 
L 356.672727 366.133954 
L 373.581818 364.822101 
" clip-path="url(#p99a037ae0f)" style="fill: none; stroke-dasharray: 1.5,2.475; stroke-dashoffset: 0; stroke: #5db7ea; stroke-width: 1.5"/>
   </g>
   <g id="line2d_33">
    <path d="M 69.218182 77.014809 
L 86.127273 230.748133 
L 103.036364 262.749048 
L 119.945455 312.001264 
L 136.854545 326.209723 
L 153.763636 340.498475 
L 170.672727 351.408082 
L 187.581818 356.036558 
L 204.490909 362.715997 
L 221.4 368.003633 
L 238.309091 366.243654 
L 255.218182 367.004929 
L 272.127273 369.011254 
L 289.036364 369.36 
L 305.945455 366.992199 
L 322.854545 365.707686 
L 339.763636 365.330525 
L 356.672727 366.556429 
L 373.581818 364.751022 
" clip-path="url(#p99a037ae0f)" style="fill: none; stroke-dasharray: 1.5,2.475; stroke-dashoffset: 0; stroke: #56b4e9; stroke-width: 1.5"/>
   </g>
   <g id="patch_3">
    <path d="M 54 384.48 
L 54 51.84 
" style="fill: none; stroke: #000000; stroke-width: 0.8; stroke-linejoin: miter; stroke-linecap: square"/>
   </g>
   <g id="patch_4">
    <path d="M 388.8 384.48 
L 388.8 51.84 
" style="fill: none; stroke: #000000; stroke-width: 0.8; stroke-linejoin: miter; stroke-linecap: square"/>
   </g>
   <g id="patch_5">
    <path d="M 54 384.48 
L 388.8 384.48 
" style="fill: none; stroke: #000000; stroke-width: 0.8; stroke-linejoin: miter; stroke-linecap: square"/>
   </g>
   <g id="patch_6">
    <path d="M 54 51.84 
L 388.8 51.84 
" style="fill: none; stroke: #000000; stroke-width: 0.8; stroke-linejoin: miter; stroke-linecap: square"/>
   </g>
   <g id="legend_1">
    <g id="patch_7">
     <path d="M 85.784375 74.518125 
L 381.8 74.518125 
Q 383.8 74.518125 383.8 72.518125 
L 383.8 58.84 
Q 383.8 56.84 381.8 56.84 
L 85.784375 56.84 
Q 83.784375 56.84 83.784375 58.84 
L 83.784375 72.518125 
Q 83.784375 74.518125 85.784375 74.518125 
z
" style="fill: #ffffff; opacity: 0.8; stroke: #cccccc; stroke-linejoin: miter"/>
    </g>
    <g id="line2d_34">
     <path d="M 87.784375 64.938438 
L 97.784375 64.938438 
L 107.784375 64.938438 
" style="fill: none; stroke: #e69f00; stroke-width: 4; stroke-linecap: square"/>
    </g>
    <g id="text_16">
     <!-- Primary roads -->
     <g transform="translate(115.784375 68.438438) scale(0.1 -0.1)">
      <defs>
       <path id="DejaVuSans-50" d="M 1259 4147 
L 1259 2394 
L 2053 2394 
Q 2494 2394 2734 2622 
Q 2975 2850 2975 3272 
Q 2975 3691 2734 3919 
Q 2494 4147 2053 4147 
L 1259 4147 
z
M 628 4666 
L 2053 4666 
Q 2838 4666 3239 4311 
Q 3641 3956 3641 3272 
Q 3641 2581 3239 2228 
Q 2838 1875 2053 1875 
L 1259 1875 
L 1259 0 
L 628 0 
L 628 4666 
z
" transform="scale(0.015625)"/>
      </defs>
      <use xlink:href="#DejaVuSans-50"/>
      <use xlink:href="#DejaVuSans-72" x="58.552734"/>
      <use xlink:href="#DejaVuSans-69" x="99.666016"/>
      <use xlink:href="#DejaVuSans-6d" x="127.449219"/>
      <use xlink:href="#DejaVuSans-61" x="224.861328"/>
      <use xlink:href="#DejaVuSans-72" x="286.140625"/>
      <use xlink:href="#DejaVuSans-79" x="327.253906"/>
      <use xlink:href="#DejaVuSans-20" x="386.433594"/>
      <use xlink:href="#DejaVuSans-72" x="418.220703"/>
      <use xlink:href="#DejaVuSans-6f" x="457.083984"/>
      <use xlink:href="#DejaVuSans-61" x="518.265625"/>
      <use xlink:href="#DejaVuSans-64" x="579.544922"/>
      <use xlink:href="#DejaVuSans-73" x="643.021484"/>
     </g>
    </g>
    <g id="line2d_35">
     <path d="M 205.295313 64.938438 
L 215.295313 64.938438 
L 225.295313 64.938438 
" style="fill: none; stroke-dasharray: 4,6.6; stroke-dashoffset: 0; stroke: #56b4e9; stroke-width: 4"/>
    </g>
    <g id="text_17">
     <!-- Primary and secondary roads -->
     <g transform="translate(233.295313 68.438438) scale(0.1 -0.1)">
      <use xlink:href="#DejaVuSans-50"/>
      <use xlink:href="#DejaVuSans-72" x="58.552734"/>
      <use xlink:href="#DejaVuSans-69" x="99.666016"/>
      <use xlink:href="#DejaVuSans-6d" x="127.449219"/>
      <use xlink:href="#DejaVuSans-61" x="224.861328"/>
      <use xlink:href="#DejaVuSans-72" x="286.140625"/>
      <use xlink:href="#DejaVuSans-79" x="327.253906"/>
      <use xlink:href="#DejaVuSans-20" x="386.433594"/>
      <use xlink:href="#DejaVuSans-61" x="418.220703"/>
      <use xlink:href="#DejaVuSans-6e" x="479.5"/>
      <use xlink:href="#DejaVuSans-64" x="542.878906"/>
      <use xlink:href="#DejaVuSans-20" x="606.355469"/>
      <use xlink:href="#DejaVuSans-73" x="638.142578"/>
      <use xlink:href="#DejaVuSans-65" x="690.242188"/>
      <use xlink:href="#DejaVuSans-63" x="751.765625"/>
      <use xlink:href="#DejaVuSans-6f" x="806.746094"/>
      <use xlink:href="#DejaVuSans-6e" x="867.927734"/>
      <use xlink:href="#DejaVuSans-64" x="931.306641"/>
      <use xlink:href="#DejaVuSans-61" x="994.783203"/>
      <use xlink:href="#DejaVuSans-72" x="1056.0625"/>
      <use xlink:href="#DejaVuSans-79" x="1097.175781"/>
      <use xlink:href="#DejaVuSans-20" x="1156.355469"/>
      <use xlink:href="#DejaVuSans-72" x="1188.142578"/>
      <use xlink:href="#DejaVuSans-6f" x="1227.005859"/>
      <use xlink:href="#DejaVuSans-61" x="1288.1875"/>
      <use xlink:href="#DejaVuSans-64" x="1349.466797"/>
      <use xlink:href="#DejaVuSans-73" x="1412.943359"/>
     </g>
    </g>
   </g>
  </g>
 </g>
 <defs>
  <clipPath id="p99a037ae0f">
   <rect x="54" y="51.84" width="334.8" height="332.64"/>
  </clipPath>
 </defs>
</svg>
