<?xml version="1.0" encoding="utf-8" standalone="no"?>
<!DOCTYPE svg PUBLIC "-//W3C//DTD SVG 1.1//EN"
  "http://www.w3.org/Graphics/SVG/1.1/DTD/svg11.dtd">
<svg xmlns:xlink="http://www.w3.org/1999/xlink" width="432pt" height="432pt" viewBox="0 0 432 432" xmlns="http://www.w3.org/2000/svg" version="1.1">
 <metadata>
  <rdf:RDF xmlns:dc="http://purl.org/dc/elements/1.1/" xmlns:cc="http://creativecommons.org/ns#" xmlns:rdf="http://www.w3.org/1999/02/22-rdf-syntax-ns#">
   <cc:Work>
    <dc:type rdf:resource="http://purl.org/dc/dcmitype/StillImage"/>
    <dc:date>2023-09-28T10:55:45.720894</dc:date>
    <dc:format>image/svg+xml</dc:format>
    <dc:creator>
     <cc:Agent>
      <dc:title>Matplotlib v3.8.0, https://matplotlib.org/</dc:title>
     </cc:Agent>
    </dc:creator>
   </cc:Work>
  </rdf:RDF>
 </metadata>
 <defs>
  <style type="text/css">*{stroke-linejoin: round; stroke-linecap: butt}</style>
 </defs>
 <g id="figure_1">
  <g id="patch_1">
   <path d="M 0 432 
L 432 432 
L 432 0 
L 0 0 
z
" style="fill: #ffffff"/>
  </g>
  <g id="axes_1">
   <g id="patch_2">
    <path d="M 54 384.48 
L 388.8 384.48 
L 388.8 51.84 
L 54 51.84 
z
" style="fill: #ffffff"/>
   </g>
   <g id="PolyCollection_1"/>
   <g id="PolyCollection_2"/>
   <g id="PolyCollection_3"/>
   <g id="PolyCollection_4"/>
   <g id="PolyCollection_5"/>
   <g id="PolyCollection_6"/>
   <g id="PolyCollection_7"/>
   <g id="PolyCollection_8"/>
   <g id="PolyCollection_9"/>
   <g id="PolyCollection_10"/>
   <g id="PolyCollection_11"/>
   <g id="PolyCollection_12"/>
   <g id="PolyCollection_13"/>
   <g id="PolyCollection_14"/>
   <g id="PolyCollection_15"/>
   <g id="PolyCollection_16"/>
   <g id="PolyCollection_17"/>
   <g id="PolyCollection_18"/>
   <g id="PolyCollection_19"/>
   <g id="PolyCollection_20"/>
   <g id="matplotlib.axis_1">
    <g id="xtick_1">
     <g id="line2d_1">
      <defs>
       <path id="m94f7236820" d="M 0 0 
L 0 3.5 
" style="stroke: #000000; stroke-width: 0.8"/>
      </defs>
      <g>
       <use xlink:href="#m94f7236820" x="103.036364" y="384.48" style="stroke: #000000; stroke-width: 0.8"/>
      </g>
     </g>
     <g id="text_1">
      <!-- 2 -->
      <g transform="translate(99.855114 399.078438) scale(0.1 -0.1)">
       <defs>
        <path id="DejaVuSans-32" d="M 1228 531 
L 3431 531 
L 3431 0 
L 469 0 
L 469 531 
Q 828 903 1448 1529 
Q 2069 2156 2228 2338 
Q 2531 2678 2651 2914 
Q 2772 3150 2772 3378 
Q 2772 3750 2511 3984 
Q 2250 4219 1831 4219 
Q 1534 4219 1204 4116 
Q 875 4013 500 3803 
L 500 4441 
Q 881 4594 1212 4672 
Q 1544 4750 1819 4750 
Q 2544 4750 2975 4387 
Q 3406 4025 3406 3419 
Q 3406 3131 3298 2873 
Q 3191 2616 2906 2266 
Q 2828 2175 2409 1742 
Q 1991 1309 1228 531 
z
" transform="scale(0.015625)"/>
       </defs>
       <use xlink:href="#DejaVuSans-32"/>
      </g>
     </g>
    </g>
    <g id="xtick_2">
     <g id="line2d_2">
      <g>
       <use xlink:href="#m94f7236820" x="170.672727" y="384.48" style="stroke: #000000; stroke-width: 0.8"/>
      </g>
     </g>
     <g id="text_2">
      <!-- 4 -->
      <g transform="translate(167.491477 399.078438) scale(0.1 -0.1)">
       <defs>
        <path id="DejaVuSans-34" d="M 2419 4116 
L 825 1625 
L 2419 1625 
L 2419 4116 
z
M 2253 4666 
L 3047 4666 
L 3047 1625 
L 3713 1625 
L 3713 1100 
L 3047 1100 
L 3047 0 
L 2419 0 
L 2419 1100 
L 313 1100 
L 313 1709 
L 2253 4666 
z
" transform="scale(0.015625)"/>
       </defs>
       <use xlink:href="#DejaVuSans-34"/>
      </g>
     </g>
    </g>
    <g id="xtick_3">
     <g id="line2d_3">
      <g>
       <use xlink:href="#m94f7236820" x="238.309091" y="384.48" style="stroke: #000000; stroke-width: 0.8"/>
      </g>
     </g>
     <g id="text_3">
      <!-- 6 -->
      <g transform="translate(235.127841 399.078438) scale(0.1 -0.1)">
       <defs>
        <path id="DejaVuSans-36" d="M 2113 2584 
Q 1688 2584 1439 2293 
Q 1191 2003 1191 1497 
Q 1191 994 1439 701 
Q 1688 409 2113 409 
Q 2538 409 2786 701 
Q 3034 994 3034 1497 
Q 3034 2003 2786 2293 
Q 2538 2584 2113 2584 
z
M 3366 4563 
L 3366 3988 
Q 3128 4100 2886 4159 
Q 2644 4219 2406 4219 
Q 1781 4219 1451 3797 
Q 1122 3375 1075 2522 
Q 1259 2794 1537 2939 
Q 1816 3084 2150 3084 
Q 2853 3084 3261 2657 
Q 3669 2231 3669 1497 
Q 3669 778 3244 343 
Q 2819 -91 2113 -91 
Q 1303 -91 875 529 
Q 447 1150 447 2328 
Q 447 3434 972 4092 
Q 1497 4750 2381 4750 
Q 2619 4750 2861 4703 
Q 3103 4656 3366 4563 
z
" transform="scale(0.015625)"/>
       </defs>
       <use xlink:href="#DejaVuSans-36"/>
      </g>
     </g>
    </g>
    <g id="xtick_4">
     <g id="line2d_4">
      <g>
       <use xlink:href="#m94f7236820" x="305.945455" y="384.48" style="stroke: #000000; stroke-width: 0.8"/>
      </g>
     </g>
     <g id="text_4">
      <!-- 8 -->
      <g transform="translate(302.764205 399.078438) scale(0.1 -0.1)">
       <defs>
        <path id="DejaVuSans-38" d="M 2034 2216 
Q 1584 2216 1326 1975 
Q 1069 1734 1069 1313 
Q 1069 891 1326 650 
Q 1584 409 2034 409 
Q 2484 409 2743 651 
Q 3003 894 3003 1313 
Q 3003 1734 2745 1975 
Q 2488 2216 2034 2216 
z
M 1403 2484 
Q 997 2584 770 2862 
Q 544 3141 544 3541 
Q 544 4100 942 4425 
Q 1341 4750 2034 4750 
Q 2731 4750 3128 4425 
Q 3525 4100 3525 3541 
Q 3525 3141 3298 2862 
Q 3072 2584 2669 2484 
Q 3125 2378 3379 2068 
Q 3634 1759 3634 1313 
Q 3634 634 3220 271 
Q 2806 -91 2034 -91 
Q 1263 -91 848 271 
Q 434 634 434 1313 
Q 434 1759 690 2068 
Q 947 2378 1403 2484 
z
M 1172 3481 
Q 1172 3119 1398 2916 
Q 1625 2713 2034 2713 
Q 2441 2713 2670 2916 
Q 2900 3119 2900 3481 
Q 2900 3844 2670 4047 
Q 2441 4250 2034 4250 
Q 1625 4250 1398 4047 
Q 1172 3844 1172 3481 
z
" transform="scale(0.015625)"/>
       </defs>
       <use xlink:href="#DejaVuSans-38"/>
      </g>
     </g>
    </g>
    <g id="xtick_5">
     <g id="line2d_5">
      <g>
       <use xlink:href="#m94f7236820" x="373.581818" y="384.48" style="stroke: #000000; stroke-width: 0.8"/>
      </g>
     </g>
     <g id="text_5">
      <!-- 10 -->
      <g transform="translate(367.219318 399.078438) scale(0.1 -0.1)">
       <defs>
        <path id="DejaVuSans-31" d="M 794 531 
L 1825 531 
L 1825 4091 
L 703 3866 
L 703 4441 
L 1819 4666 
L 2450 4666 
L 2450 531 
L 3481 531 
L 3481 0 
L 794 0 
L 794 531 
z
" transform="scale(0.015625)"/>
        <path id="DejaVuSans-30" d="M 2034 4250 
Q 1547 4250 1301 3770 
Q 1056 3291 1056 2328 
Q 1056 1369 1301 889 
Q 1547 409 2034 409 
Q 2525 409 2770 889 
Q 3016 1369 3016 2328 
Q 3016 3291 2770 3770 
Q 2525 4250 2034 4250 
z
M 2034 4750 
Q 2819 4750 3233 4129 
Q 3647 3509 3647 2328 
Q 3647 1150 3233 529 
Q 2819 -91 2034 -91 
Q 1250 -91 836 529 
Q 422 1150 422 2328 
Q 422 3509 836 4129 
Q 1250 4750 2034 4750 
z
" transform="scale(0.015625)"/>
       </defs>
       <use xlink:href="#DejaVuSans-31"/>
       <use xlink:href="#DejaVuSans-30" x="63.623047"/>
      </g>
     </g>
    </g>
    <g id="text_6">
     <!-- Resolution -->
     <g transform="translate(195.275 412.756563) scale(0.1 -0.1)">
      <defs>
       <path id="DejaVuSans-52" d="M 2841 2188 
Q 3044 2119 3236 1894 
Q 3428 1669 3622 1275 
L 4263 0 
L 3584 0 
L 2988 1197 
Q 2756 1666 2539 1819 
Q 2322 1972 1947 1972 
L 1259 1972 
L 1259 0 
L 628 0 
L 628 4666 
L 2053 4666 
Q 2853 4666 3247 4331 
Q 3641 3997 3641 3322 
Q 3641 2881 3436 2590 
Q 3231 2300 2841 2188 
z
M 1259 4147 
L 1259 2491 
L 2053 2491 
Q 2509 2491 2742 2702 
Q 2975 2913 2975 3322 
Q 2975 3731 2742 3939 
Q 2509 4147 2053 4147 
L 1259 4147 
z
" transform="scale(0.015625)"/>
       <path id="DejaVuSans-65" d="M 3597 1894 
L 3597 1613 
L 953 1613 
Q 991 1019 1311 708 
Q 1631 397 2203 397 
Q 2534 397 2845 478 
Q 3156 559 3463 722 
L 3463 178 
Q 3153 47 2828 -22 
Q 2503 -91 2169 -91 
Q 1331 -91 842 396 
Q 353 884 353 1716 
Q 353 2575 817 3079 
Q 1281 3584 2069 3584 
Q 2775 3584 3186 3129 
Q 3597 2675 3597 1894 
z
M 3022 2063 
Q 3016 2534 2758 2815 
Q 2500 3097 2075 3097 
Q 1594 3097 1305 2825 
Q 1016 2553 972 2059 
L 3022 2063 
z
" transform="scale(0.015625)"/>
       <path id="DejaVuSans-73" d="M 2834 3397 
L 2834 2853 
Q 2591 2978 2328 3040 
Q 2066 3103 1784 3103 
Q 1356 3103 1142 2972 
Q 928 2841 928 2578 
Q 928 2378 1081 2264 
Q 1234 2150 1697 2047 
L 1894 2003 
Q 2506 1872 2764 1633 
Q 3022 1394 3022 966 
Q 3022 478 2636 193 
Q 2250 -91 1575 -91 
Q 1294 -91 989 -36 
Q 684 19 347 128 
L 347 722 
Q 666 556 975 473 
Q 1284 391 1588 391 
Q 1994 391 2212 530 
Q 2431 669 2431 922 
Q 2431 1156 2273 1281 
Q 2116 1406 1581 1522 
L 1381 1569 
Q 847 1681 609 1914 
Q 372 2147 372 2553 
Q 372 3047 722 3315 
Q 1072 3584 1716 3584 
Q 2034 3584 2315 3537 
Q 2597 3491 2834 3397 
z
" transform="scale(0.015625)"/>
       <path id="DejaVuSans-6f" d="M 1959 3097 
Q 1497 3097 1228 2736 
Q 959 2375 959 1747 
Q 959 1119 1226 758 
Q 1494 397 1959 397 
Q 2419 397 2687 759 
Q 2956 1122 2956 1747 
Q 2956 2369 2687 2733 
Q 2419 3097 1959 3097 
z
M 1959 3584 
Q 2709 3584 3137 3096 
Q 3566 2609 3566 1747 
Q 3566 888 3137 398 
Q 2709 -91 1959 -91 
Q 1206 -91 779 398 
Q 353 888 353 1747 
Q 353 2609 779 3096 
Q 1206 3584 1959 3584 
z
" transform="scale(0.015625)"/>
       <path id="DejaVuSans-6c" d="M 603 4863 
L 1178 4863 
L 1178 0 
L 603 0 
L 603 4863 
z
" transform="scale(0.015625)"/>
       <path id="DejaVuSans-75" d="M 544 1381 
L 544 3500 
L 1119 3500 
L 1119 1403 
Q 1119 906 1312 657 
Q 1506 409 1894 409 
Q 2359 409 2629 706 
Q 2900 1003 2900 1516 
L 2900 3500 
L 3475 3500 
L 3475 0 
L 2900 0 
L 2900 538 
Q 2691 219 2414 64 
Q 2138 -91 1772 -91 
Q 1169 -91 856 284 
Q 544 659 544 1381 
z
M 1991 3584 
L 1991 3584 
z
" transform="scale(0.015625)"/>
       <path id="DejaVuSans-74" d="M 1172 4494 
L 1172 3500 
L 2356 3500 
L 2356 3053 
L 1172 3053 
L 1172 1153 
Q 1172 725 1289 603 
Q 1406 481 1766 481 
L 2356 481 
L 2356 0 
L 1766 0 
Q 1100 0 847 248 
Q 594 497 594 1153 
L 594 3053 
L 172 3053 
L 172 3500 
L 594 3500 
L 594 4494 
L 1172 4494 
z
" transform="scale(0.015625)"/>
       <path id="DejaVuSans-69" d="M 603 3500 
L 1178 3500 
L 1178 0 
L 603 0 
L 603 3500 
z
M 603 4863 
L 1178 4863 
L 1178 4134 
L 603 4134 
L 603 4863 
z
" transform="scale(0.015625)"/>
       <path id="DejaVuSans-6e" d="M 3513 2113 
L 3513 0 
L 2938 0 
L 2938 2094 
Q 2938 2591 2744 2837 
Q 2550 3084 2163 3084 
Q 1697 3084 1428 2787 
Q 1159 2491 1159 1978 
L 1159 0 
L 581 0 
L 581 3500 
L 1159 3500 
L 1159 2956 
Q 1366 3272 1645 3428 
Q 1925 3584 2291 3584 
Q 2894 3584 3203 3211 
Q 3513 2838 3513 2113 
z
" transform="scale(0.015625)"/>
      </defs>
      <use xlink:href="#DejaVuSans-52"/>
      <use xlink:href="#DejaVuSans-65" x="64.982422"/>
      <use xlink:href="#DejaVuSans-73" x="126.505859"/>
      <use xlink:href="#DejaVuSans-6f" x="178.605469"/>
      <use xlink:href="#DejaVuSans-6c" x="239.787109"/>
      <use xlink:href="#DejaVuSans-75" x="267.570312"/>
      <use xlink:href="#DejaVuSans-74" x="330.949219"/>
      <use xlink:href="#DejaVuSans-69" x="370.158203"/>
      <use xlink:href="#DejaVuSans-6f" x="397.941406"/>
      <use xlink:href="#DejaVuSans-6e" x="459.123047"/>
     </g>
    </g>
   </g>
   <g id="matplotlib.axis_2">
    <g id="ytick_1">
     <g id="line2d_6">
      <defs>
       <path id="m44bf82d6aa" d="M 0 0 
L -3.5 0 
" style="stroke: #000000; stroke-width: 0.8"/>
      </defs>
      <g>
       <use xlink:href="#m44bf82d6aa" x="54" y="347.887522" style="stroke: #000000; stroke-width: 0.8"/>
      </g>
     </g>
     <g id="text_7">
      <!-- 10 -->
      <g transform="translate(34.275 351.686741) scale(0.1 -0.1)">
       <use xlink:href="#DejaVuSans-31"/>
       <use xlink:href="#DejaVuSans-30" x="63.623047"/>
      </g>
     </g>
    </g>
    <g id="ytick_2">
     <g id="line2d_7">
      <g>
       <use xlink:href="#m44bf82d6aa" x="54" y="308.59742" style="stroke: #000000; stroke-width: 0.8"/>
      </g>
     </g>
     <g id="text_8">
      <!-- 20 -->
      <g transform="translate(34.275 312.396639) scale(0.1 -0.1)">
       <use xlink:href="#DejaVuSans-32"/>
       <use xlink:href="#DejaVuSans-30" x="63.623047"/>
      </g>
     </g>
    </g>
    <g id="ytick_3">
     <g id="line2d_8">
      <g>
       <use xlink:href="#m44bf82d6aa" x="54" y="269.307318" style="stroke: #000000; stroke-width: 0.8"/>
      </g>
     </g>
     <g id="text_9">
      <!-- 30 -->
      <g transform="translate(34.275 273.106537) scale(0.1 -0.1)">
       <defs>
        <path id="DejaVuSans-33" d="M 2597 2516 
Q 3050 2419 3304 2112 
Q 3559 1806 3559 1356 
Q 3559 666 3084 287 
Q 2609 -91 1734 -91 
Q 1441 -91 1130 -33 
Q 819 25 488 141 
L 488 750 
Q 750 597 1062 519 
Q 1375 441 1716 441 
Q 2309 441 2620 675 
Q 2931 909 2931 1356 
Q 2931 1769 2642 2001 
Q 2353 2234 1838 2234 
L 1294 2234 
L 1294 2753 
L 1863 2753 
Q 2328 2753 2575 2939 
Q 2822 3125 2822 3475 
Q 2822 3834 2567 4026 
Q 2313 4219 1838 4219 
Q 1578 4219 1281 4162 
Q 984 4106 628 3988 
L 628 4550 
Q 988 4650 1302 4700 
Q 1616 4750 1894 4750 
Q 2613 4750 3031 4423 
Q 3450 4097 3450 3541 
Q 3450 3153 3228 2886 
Q 3006 2619 2597 2516 
z
" transform="scale(0.015625)"/>
       </defs>
       <use xlink:href="#DejaVuSans-33"/>
       <use xlink:href="#DejaVuSans-30" x="63.623047"/>
      </g>
     </g>
    </g>
    <g id="ytick_4">
     <g id="line2d_9">
      <g>
       <use xlink:href="#m44bf82d6aa" x="54" y="230.017217" style="stroke: #000000; stroke-width: 0.8"/>
      </g>
     </g>
     <g id="text_10">
      <!-- 40 -->
      <g transform="translate(34.275 233.816435) scale(0.1 -0.1)">
       <use xlink:href="#DejaVuSans-34"/>
       <use xlink:href="#DejaVuSans-30" x="63.623047"/>
      </g>
     </g>
    </g>
    <g id="ytick_5">
     <g id="line2d_10">
      <g>
       <use xlink:href="#m44bf82d6aa" x="54" y="190.727115" style="stroke: #000000; stroke-width: 0.8"/>
      </g>
     </g>
     <g id="text_11">
      <!-- 50 -->
      <g transform="translate(34.275 194.526333) scale(0.1 -0.1)">
       <defs>
        <path id="DejaVuSans-35" d="M 691 4666 
L 3169 4666 
L 3169 4134 
L 1269 4134 
L 1269 2991 
Q 1406 3038 1543 3061 
Q 1681 3084 1819 3084 
Q 2600 3084 3056 2656 
Q 3513 2228 3513 1497 
Q 3513 744 3044 326 
Q 2575 -91 1722 -91 
Q 1428 -91 1123 -41 
Q 819 9 494 109 
L 494 744 
Q 775 591 1075 516 
Q 1375 441 1709 441 
Q 2250 441 2565 725 
Q 2881 1009 2881 1497 
Q 2881 1984 2565 2268 
Q 2250 2553 1709 2553 
Q 1456 2553 1204 2497 
Q 953 2441 691 2322 
L 691 4666 
z
" transform="scale(0.015625)"/>
       </defs>
       <use xlink:href="#DejaVuSans-35"/>
       <use xlink:href="#DejaVuSans-30" x="63.623047"/>
      </g>
     </g>
    </g>
    <g id="ytick_6">
     <g id="line2d_11">
      <g>
       <use xlink:href="#m44bf82d6aa" x="54" y="151.437013" style="stroke: #000000; stroke-width: 0.8"/>
      </g>
     </g>
     <g id="text_12">
      <!-- 60 -->
      <g transform="translate(34.275 155.236232) scale(0.1 -0.1)">
       <use xlink:href="#DejaVuSans-36"/>
       <use xlink:href="#DejaVuSans-30" x="63.623047"/>
      </g>
     </g>
    </g>
    <g id="ytick_7">
     <g id="line2d_12">
      <g>
       <use xlink:href="#m44bf82d6aa" x="54" y="112.146911" style="stroke: #000000; stroke-width: 0.8"/>
      </g>
     </g>
     <g id="text_13">
      <!-- 70 -->
      <g transform="translate(34.275 115.94613) scale(0.1 -0.1)">
       <defs>
        <path id="DejaVuSans-37" d="M 525 4666 
L 3525 4666 
L 3525 4397 
L 1831 0 
L 1172 0 
L 2766 4134 
L 525 4134 
L 525 4666 
z
" transform="scale(0.015625)"/>
       </defs>
       <use xlink:href="#DejaVuSans-37"/>
       <use xlink:href="#DejaVuSans-30" x="63.623047"/>
      </g>
     </g>
    </g>
    <g id="ytick_8">
     <g id="line2d_13">
      <g>
       <use xlink:href="#m44bf82d6aa" x="54" y="72.856809" style="stroke: #000000; stroke-width: 0.8"/>
      </g>
     </g>
     <g id="text_14">
      <!-- 80 -->
      <g transform="translate(34.275 76.656028) scale(0.1 -0.1)">
       <use xlink:href="#DejaVuSans-38"/>
       <use xlink:href="#DejaVuSans-30" x="63.623047"/>
      </g>
     </g>
    </g>
    <g id="text_15">
     <!-- Area symmetric difference ($km^2$) -->
     <g transform="translate(28.175 300.66) rotate(-90) scale(0.1 -0.1)">
      <defs>
       <path id="DejaVuSans-41" d="M 2188 4044 
L 1331 1722 
L 3047 1722 
L 2188 4044 
z
M 1831 4666 
L 2547 4666 
L 4325 0 
L 3669 0 
L 3244 1197 
L 1141 1197 
L 716 0 
L 50 0 
L 1831 4666 
z
" transform="scale(0.015625)"/>
       <path id="DejaVuSans-72" d="M 2631 2963 
Q 2534 3019 2420 3045 
Q 2306 3072 2169 3072 
Q 1681 3072 1420 2755 
Q 1159 2438 1159 1844 
L 1159 0 
L 581 0 
L 581 3500 
L 1159 3500 
L 1159 2956 
Q 1341 3275 1631 3429 
Q 1922 3584 2338 3584 
Q 2397 3584 2469 3576 
Q 2541 3569 2628 3553 
L 2631 2963 
z
" transform="scale(0.015625)"/>
       <path id="DejaVuSans-61" d="M 2194 1759 
Q 1497 1759 1228 1600 
Q 959 1441 959 1056 
Q 959 750 1161 570 
Q 1363 391 1709 391 
Q 2188 391 2477 730 
Q 2766 1069 2766 1631 
L 2766 1759 
L 2194 1759 
z
M 3341 1997 
L 3341 0 
L 2766 0 
L 2766 531 
Q 2569 213 2275 61 
Q 1981 -91 1556 -91 
Q 1019 -91 701 211 
Q 384 513 384 1019 
Q 384 1609 779 1909 
Q 1175 2209 1959 2209 
L 2766 2209 
L 2766 2266 
Q 2766 2663 2505 2880 
Q 2244 3097 1772 3097 
Q 1472 3097 1187 3025 
Q 903 2953 641 2809 
L 641 3341 
Q 956 3463 1253 3523 
Q 1550 3584 1831 3584 
Q 2591 3584 2966 3190 
Q 3341 2797 3341 1997 
z
" transform="scale(0.015625)"/>
       <path id="DejaVuSans-20" transform="scale(0.015625)"/>
       <path id="DejaVuSans-79" d="M 2059 -325 
Q 1816 -950 1584 -1140 
Q 1353 -1331 966 -1331 
L 506 -1331 
L 506 -850 
L 844 -850 
Q 1081 -850 1212 -737 
Q 1344 -625 1503 -206 
L 1606 56 
L 191 3500 
L 800 3500 
L 1894 763 
L 2988 3500 
L 3597 3500 
L 2059 -325 
z
" transform="scale(0.015625)"/>
       <path id="DejaVuSans-6d" d="M 3328 2828 
Q 3544 3216 3844 3400 
Q 4144 3584 4550 3584 
Q 5097 3584 5394 3201 
Q 5691 2819 5691 2113 
L 5691 0 
L 5113 0 
L 5113 2094 
Q 5113 2597 4934 2840 
Q 4756 3084 4391 3084 
Q 3944 3084 3684 2787 
Q 3425 2491 3425 1978 
L 3425 0 
L 2847 0 
L 2847 2094 
Q 2847 2600 2669 2842 
Q 2491 3084 2119 3084 
Q 1678 3084 1418 2786 
Q 1159 2488 1159 1978 
L 1159 0 
L 581 0 
L 581 3500 
L 1159 3500 
L 1159 2956 
Q 1356 3278 1631 3431 
Q 1906 3584 2284 3584 
Q 2666 3584 2933 3390 
Q 3200 3197 3328 2828 
z
" transform="scale(0.015625)"/>
       <path id="DejaVuSans-63" d="M 3122 3366 
L 3122 2828 
Q 2878 2963 2633 3030 
Q 2388 3097 2138 3097 
Q 1578 3097 1268 2742 
Q 959 2388 959 1747 
Q 959 1106 1268 751 
Q 1578 397 2138 397 
Q 2388 397 2633 464 
Q 2878 531 3122 666 
L 3122 134 
Q 2881 22 2623 -34 
Q 2366 -91 2075 -91 
Q 1284 -91 818 406 
Q 353 903 353 1747 
Q 353 2603 823 3093 
Q 1294 3584 2113 3584 
Q 2378 3584 2631 3529 
Q 2884 3475 3122 3366 
z
" transform="scale(0.015625)"/>
       <path id="DejaVuSans-64" d="M 2906 2969 
L 2906 4863 
L 3481 4863 
L 3481 0 
L 2906 0 
L 2906 525 
Q 2725 213 2448 61 
Q 2172 -91 1784 -91 
Q 1150 -91 751 415 
Q 353 922 353 1747 
Q 353 2572 751 3078 
Q 1150 3584 1784 3584 
Q 2172 3584 2448 3432 
Q 2725 3281 2906 2969 
z
M 947 1747 
Q 947 1113 1208 752 
Q 1469 391 1925 391 
Q 2381 391 2643 752 
Q 2906 1113 2906 1747 
Q 2906 2381 2643 2742 
Q 2381 3103 1925 3103 
Q 1469 3103 1208 2742 
Q 947 2381 947 1747 
z
" transform="scale(0.015625)"/>
       <path id="DejaVuSans-66" d="M 2375 4863 
L 2375 4384 
L 1825 4384 
Q 1516 4384 1395 4259 
Q 1275 4134 1275 3809 
L 1275 3500 
L 2222 3500 
L 2222 3053 
L 1275 3053 
L 1275 0 
L 697 0 
L 697 3053 
L 147 3053 
L 147 3500 
L 697 3500 
L 697 3744 
Q 697 4328 969 4595 
Q 1241 4863 1831 4863 
L 2375 4863 
z
" transform="scale(0.015625)"/>
       <path id="DejaVuSans-28" d="M 1984 4856 
Q 1566 4138 1362 3434 
Q 1159 2731 1159 2009 
Q 1159 1288 1364 580 
Q 1569 -128 1984 -844 
L 1484 -844 
Q 1016 -109 783 600 
Q 550 1309 550 2009 
Q 550 2706 781 3412 
Q 1013 4119 1484 4856 
L 1984 4856 
z
" transform="scale(0.015625)"/>
       <path id="DejaVuSans-Oblique-6b" d="M 1172 4863 
L 1747 4863 
L 1197 2028 
L 3169 3500 
L 3916 3500 
L 1716 1825 
L 3322 0 
L 2625 0 
L 1131 1709 
L 800 0 
L 225 0 
L 1172 4863 
z
" transform="scale(0.015625)"/>
       <path id="DejaVuSans-Oblique-6d" d="M 5747 2113 
L 5338 0 
L 4763 0 
L 5166 2094 
Q 5191 2228 5203 2325 
Q 5216 2422 5216 2491 
Q 5216 2772 5059 2928 
Q 4903 3084 4622 3084 
Q 4203 3084 3875 2770 
Q 3547 2456 3450 1953 
L 3066 0 
L 2491 0 
L 2900 2094 
Q 2925 2209 2937 2307 
Q 2950 2406 2950 2484 
Q 2950 2769 2794 2926 
Q 2638 3084 2363 3084 
Q 1938 3084 1609 2770 
Q 1281 2456 1184 1953 
L 800 0 
L 225 0 
L 909 3500 
L 1484 3500 
L 1375 2956 
Q 1609 3263 1923 3423 
Q 2238 3584 2597 3584 
Q 2978 3584 3223 3384 
Q 3469 3184 3519 2828 
Q 3781 3197 4126 3390 
Q 4472 3584 4856 3584 
Q 5306 3584 5551 3325 
Q 5797 3066 5797 2591 
Q 5797 2488 5784 2364 
Q 5772 2241 5747 2113 
z
" transform="scale(0.015625)"/>
       <path id="DejaVuSans-29" d="M 513 4856 
L 1013 4856 
Q 1481 4119 1714 3412 
Q 1947 2706 1947 2009 
Q 1947 1309 1714 600 
Q 1481 -109 1013 -844 
L 513 -844 
Q 928 -128 1133 580 
Q 1338 1288 1338 2009 
Q 1338 2731 1133 3434 
Q 928 4138 513 4856 
z
" transform="scale(0.015625)"/>
      </defs>
      <use xlink:href="#DejaVuSans-41" transform="translate(0 0.765625)"/>
      <use xlink:href="#DejaVuSans-72" transform="translate(68.408203 0.765625)"/>
      <use xlink:href="#DejaVuSans-65" transform="translate(109.521484 0.765625)"/>
      <use xlink:href="#DejaVuSans-61" transform="translate(171.044922 0.765625)"/>
      <use xlink:href="#DejaVuSans-20" transform="translate(232.324219 0.765625)"/>
      <use xlink:href="#DejaVuSans-73" transform="translate(264.111328 0.765625)"/>
      <use xlink:href="#DejaVuSans-79" transform="translate(316.210938 0.765625)"/>
      <use xlink:href="#DejaVuSans-6d" transform="translate(375.390625 0.765625)"/>
      <use xlink:href="#DejaVuSans-6d" transform="translate(472.802734 0.765625)"/>
      <use xlink:href="#DejaVuSans-65" transform="translate(570.214844 0.765625)"/>
      <use xlink:href="#DejaVuSans-74" transform="translate(631.738281 0.765625)"/>
      <use xlink:href="#DejaVuSans-72" transform="translate(670.947266 0.765625)"/>
      <use xlink:href="#DejaVuSans-69" transform="translate(712.060547 0.765625)"/>
      <use xlink:href="#DejaVuSans-63" transform="translate(739.84375 0.765625)"/>
      <use xlink:href="#DejaVuSans-20" transform="translate(794.824219 0.765625)"/>
      <use xlink:href="#DejaVuSans-64" transform="translate(826.611328 0.765625)"/>
      <use xlink:href="#DejaVuSans-69" transform="translate(890.087891 0.765625)"/>
      <use xlink:href="#DejaVuSans-66" transform="translate(917.871094 0.765625)"/>
      <use xlink:href="#DejaVuSans-66" transform="translate(953.076172 0.765625)"/>
      <use xlink:href="#DejaVuSans-65" transform="translate(988.28125 0.765625)"/>
      <use xlink:href="#DejaVuSans-72" transform="translate(1049.804688 0.765625)"/>
      <use xlink:href="#DejaVuSans-65" transform="translate(1090.917969 0.765625)"/>
      <use xlink:href="#DejaVuSans-6e" transform="translate(1152.441406 0.765625)"/>
      <use xlink:href="#DejaVuSans-63" transform="translate(1215.820312 0.765625)"/>
      <use xlink:href="#DejaVuSans-65" transform="translate(1270.800781 0.765625)"/>
      <use xlink:href="#DejaVuSans-20" transform="translate(1332.324219 0.765625)"/>
      <use xlink:href="#DejaVuSans-28" transform="translate(1364.111328 0.765625)"/>
      <use xlink:href="#DejaVuSans-Oblique-6b" transform="translate(1403.125 0.765625)"/>
      <use xlink:href="#DejaVuSans-Oblique-6d" transform="translate(1461.035156 0.765625)"/>
      <use xlink:href="#DejaVuSans-32" transform="translate(1563.097161 39.046875) scale(0.7)"/>
      <use xlink:href="#DejaVuSans-29" transform="translate(1610.367669 0.765625)"/>
     </g>
    </g>
   </g>
   <g id="line2d_14">
    <path d="M 69.218182 69.099401 
L 86.127273 205.185294 
L 103.036364 230.722175 
L 119.945455 275.236291 
L 136.854545 282.182683 
L 153.763636 295.432418 
L 170.672727 304.720282 
L 187.581818 310.855858 
L 204.490909 308.283313 
L 221.4 316.62508 
L 238.309091 316.762119 
L 255.218182 316.663788 
L 272.127273 314.254808 
L 289.036364 315.265745 
L 305.945455 312.735312 
L 322.854545 313.940125 
L 339.763636 310.400948 
L 356.672727 309.025971 
L 373.581818 307.04262 
" clip-path="url(#pf87176115c)" style="fill: none; stroke: #95c4df; stroke-width: 1.5; stroke-linecap: square"/>
   </g>
   <g id="line2d_15">
    <path d="M 69.218182 140.768327 
L 86.127273 207.434642 
L 103.036364 237.359972 
L 119.945455 275.389223 
L 136.854545 280.744828 
L 153.763636 298.007649 
L 170.672727 310.729341 
L 187.581818 308.233537 
L 204.490909 313.230656 
L 221.4 315.944402 
L 238.309091 316.549102 
L 255.218182 315.624351 
L 272.127273 316.39462 
L 289.036364 313.476437 
L 305.945455 313.408714 
L 322.854545 309.837973 
L 339.763636 311.363462 
L 356.672727 310.977468 
L 373.581818 310.257827 
" clip-path="url(#pf87176115c)" style="fill: none; stroke: #8abedc; stroke-width: 1.5; stroke-linecap: square"/>
   </g>
   <g id="line2d_16">
    <path d="M 69.218182 143.915588 
L 86.127273 208.915867 
L 103.036364 245.437878 
L 119.945455 279.011175 
L 136.854545 284.988181 
L 153.763636 296.370218 
L 170.672727 304.060495 
L 187.581818 313.733945 
L 204.490909 315.946378 
L 221.4 315.214406 
L 238.309091 317.511713 
L 255.218182 316.796047 
L 272.127273 315.033716 
L 289.036364 315.71456 
L 305.945455 312.354878 
L 322.854545 313.025544 
L 339.763636 310.694073 
L 356.672727 311.177844 
L 373.581818 311.169657 
" clip-path="url(#pf87176115c)" style="fill: none; stroke: #75b3d5; stroke-width: 1.5; stroke-linecap: square"/>
   </g>
   <g id="line2d_17">
    <path d="M 69.218182 66.96 
L 86.127273 191.803624 
L 103.036364 234.724228 
L 119.945455 270.395445 
L 136.854545 283.469216 
L 153.763636 294.049828 
L 170.672727 303.111858 
L 187.581818 315.489242 
L 204.490909 317.114917 
L 221.4 313.435087 
L 238.309091 317.373745 
L 255.218182 317.894142 
L 272.127273 315.569443 
L 289.036364 314.035828 
L 305.945455 313.811531 
L 322.854545 311.688212 
L 339.763636 313.259206 
L 356.672727 308.632506 
L 373.581818 310.526709 
" clip-path="url(#pf87176115c)" style="fill: none; stroke: #60a7cf; stroke-width: 1.5; stroke-linecap: square"/>
   </g>
   <g id="line2d_18">
    <path d="M 69.218182 107.934763 
L 86.127273 207.890661 
L 103.036364 230.943428 
L 119.945455 274.210476 
L 136.854545 284.729706 
L 153.763636 292.620982 
L 170.672727 308.238905 
L 187.581818 314.023304 
L 204.490909 312.707197 
L 221.4 315.51333 
L 238.309091 318.776912 
L 255.218182 315.987405 
L 272.127273 312.283072 
L 289.036364 315.357768 
L 305.945455 310.376358 
L 322.854545 313.305896 
L 339.763636 312.276222 
L 356.672727 311.881689 
L 373.581818 310.641359 
" clip-path="url(#pf87176115c)" style="fill: none; stroke: #55a1cc; stroke-width: 1.5; stroke-linecap: square"/>
   </g>
   <g id="line2d_19">
    <path d="M 69.218182 107.243244 
L 86.127273 207.1237 
L 103.036364 229.083002 
L 119.945455 268.892307 
L 136.854545 282.165118 
L 153.763636 294.858184 
L 170.672727 307.372911 
L 187.581818 310.276021 
L 204.490909 310.927357 
L 221.4 310.912346 
L 238.309091 315.23151 
L 255.218182 316.340533 
L 272.127273 314.55392 
L 289.036364 313.217694 
L 305.945455 312.793016 
L 322.854545 310.386229 
L 339.763636 312.091382 
L 356.672727 311.383262 
L 373.581818 309.572205 
" clip-path="url(#pf87176115c)" style="fill: none; stroke: #4095c5; stroke-width: 1.5; stroke-linecap: square"/>
   </g>
   <g id="line2d_20">
    <path d="M 69.218182 75.866625 
L 86.127273 205.31378 
L 103.036364 231.594818 
L 119.945455 273.056773 
L 136.854545 291.270297 
L 153.763636 291.008057 
L 170.672727 305.383283 
L 187.581818 311.570651 
L 204.490909 316.248199 
L 221.4 313.874863 
L 238.309091 318.908882 
L 255.218182 314.235887 
L 272.127273 317.824995 
L 289.036364 315.597913 
L 305.945455 312.788456 
L 322.854545 314.204718 
L 339.763636 311.474016 
L 356.672727 309.392591 
L 373.581818 310.11238 
" clip-path="url(#pf87176115c)" style="fill: none; stroke: #2b8abf; stroke-width: 1.5; stroke-linecap: square"/>
   </g>
   <g id="line2d_21">
    <path d="M 69.218182 76.569466 
L 86.127273 205.054632 
L 103.036364 242.236509 
L 119.945455 263.854872 
L 136.854545 290.947586 
L 153.763636 294.245 
L 170.672727 306.66126 
L 187.581818 310.180423 
L 204.490909 310.298434 
L 221.4 314.967497 
L 238.309091 315.471724 
L 255.218182 316.849882 
L 272.127273 316.978988 
L 289.036364 315.05383 
L 305.945455 311.938022 
L 322.854545 312.527485 
L 339.763636 311.621437 
L 356.672727 310.666572 
L 373.581818 311.936509 
" clip-path="url(#pf87176115c)" style="fill: none; stroke: #2084bc; stroke-width: 1.5; stroke-linecap: square"/>
   </g>
   <g id="line2d_22">
    <path d="M 69.218182 108.782187 
L 86.127273 209.132472 
L 103.036364 221.597228 
L 119.945455 275.631225 
L 136.854545 278.039006 
L 153.763636 294.007064 
L 170.672727 305.929085 
L 187.581818 311.948266 
L 204.490909 310.127035 
L 221.4 314.554126 
L 238.309091 314.843594 
L 255.218182 313.194468 
L 272.127273 315.083617 
L 289.036364 312.692383 
L 305.945455 312.993487 
L 322.854545 311.806221 
L 339.763636 310.047224 
L 356.672727 313.068239 
L 373.581818 310.259136 
" clip-path="url(#pf87176115c)" style="fill: none; stroke: #0b78b5; stroke-width: 1.5; stroke-linecap: square"/>
   </g>
   <g id="line2d_23">
    <path d="M 69.218182 74.48645 
L 86.127273 206.993449 
L 103.036364 233.445186 
L 119.945455 273.742954 
L 136.854545 284.737728 
L 153.763636 291.31563 
L 170.672727 308.818758 
L 187.581818 309.497565 
L 204.490909 316.878544 
L 221.4 316.905606 
L 238.309091 315.650768 
L 255.218182 314.460985 
L 272.127273 317.57332 
L 289.036364 315.502832 
L 305.945455 310.658795 
L 322.854545 313.836786 
L 339.763636 312.80493 
L 356.672727 313.647919 
L 373.581818 308.184876 
" clip-path="url(#pf87176115c)" style="fill: none; stroke: #0072b2; stroke-width: 1.5; stroke-linecap: square"/>
   </g>
   <g id="line2d_24">
    <path d="M 69.218182 68.586751 
L 86.127273 224.620186 
L 103.036364 256.092738 
L 119.945455 308.92922 
L 136.854545 323.112381 
L 153.763636 339.096907 
L 170.672727 345.982122 
L 187.581818 354.295011 
L 204.490909 358.736993 
L 221.4 363.468861 
L 238.309091 364.258634 
L 255.218182 364.993954 
L 272.127273 367.184721 
L 289.036364 367.344264 
L 305.945455 368.765537 
L 322.854545 368.03704 
L 339.763636 368.169775 
L 356.672727 369.117789 
L 373.581818 368.197286 
" clip-path="url(#pf87176115c)" style="fill: none; stroke-dasharray: 1.5,2.475; stroke-dashoffset: 0; stroke: #f9f4b0; stroke-width: 1.5"/>
   </g>
   <g id="line2d_25">
    <path d="M 69.218182 148.83905 
L 86.127273 224.551521 
L 103.036364 269.840822 
L 119.945455 303.668713 
L 136.854545 316.737605 
L 153.763636 337.542972 
L 170.672727 348.154926 
L 187.581818 353.288538 
L 204.490909 359.194592 
L 221.4 363.398329 
L 238.309091 363.721456 
L 255.218182 366.302944 
L 272.127273 367.255889 
L 289.036364 367.767158 
L 305.945455 368.500375 
L 322.854545 367.740418 
L 339.763636 368.02457 
L 356.672727 368.421991 
L 373.581818 368.18126 
" clip-path="url(#pf87176115c)" style="fill: none; stroke-dasharray: 1.5,2.475; stroke-dashoffset: 0; stroke: #f8f3a8; stroke-width: 1.5"/>
   </g>
   <g id="line2d_26">
    <path d="M 69.218182 148.022412 
L 86.127273 224.607733 
L 103.036364 269.208091 
L 119.945455 306.736931 
L 136.854545 320.399043 
L 153.763636 336.026664 
L 170.672727 346.376277 
L 187.581818 355.996598 
L 204.490909 359.194018 
L 221.4 361.535705 
L 238.309091 364.433761 
L 255.218182 365.742236 
L 272.127273 366.873309 
L 289.036364 367.455157 
L 305.945455 367.940037 
L 322.854545 368.712116 
L 339.763636 368.177744 
L 356.672727 368.332591 
L 373.581818 368.480644 
" clip-path="url(#pf87176115c)" style="fill: none; stroke-dasharray: 1.5,2.475; stroke-dashoffset: 0; stroke: #f7f099; stroke-width: 1.5"/>
   </g>
   <g id="line2d_27">
    <path d="M 69.218182 67.826561 
L 86.127273 210.21168 
L 103.036364 254.568563 
L 119.945455 299.364961 
L 136.854545 324.398591 
L 153.763636 338.815102 
L 170.672727 346.801541 
L 187.581818 354.983927 
L 204.490909 360.497525 
L 221.4 361.714095 
L 238.309091 364.42467 
L 255.218182 365.088266 
L 272.127273 366.682295 
L 289.036364 367.342543 
L 305.945455 367.775421 
L 322.854545 367.836979 
L 339.763636 368.704391 
L 356.672727 368.464215 
L 373.581818 368.205592 
" clip-path="url(#pf87176115c)" style="fill: none; stroke-dasharray: 1.5,2.475; stroke-dashoffset: 0; stroke: #f6ee89; stroke-width: 1.5"/>
   </g>
   <g id="line2d_28">
    <path d="M 69.218182 114.962186 
L 86.127273 224.99714 
L 103.036364 266.537872 
L 119.945455 306.171982 
L 136.854545 322.40339 
L 153.763636 336.638287 
L 170.672727 348.063495 
L 187.581818 355.688966 
L 204.490909 359.40443 
L 221.4 362.103852 
L 238.309091 363.984632 
L 255.218182 366.466672 
L 272.127273 367.054123 
L 289.036364 367.794429 
L 305.945455 368.04454 
L 322.854545 368.290683 
L 339.763636 368.259972 
L 356.672727 369.215391 
L 373.581818 368.576442 
" clip-path="url(#pf87176115c)" style="fill: none; stroke-dasharray: 1.5,2.475; stroke-dashoffset: 0; stroke: #f5ed81; stroke-width: 1.5"/>
   </g>
   <g id="line2d_29">
    <path d="M 69.218182 113.094645 
L 86.127273 224.898539 
L 103.036364 255.355596 
L 119.945455 306.9382 
L 136.854545 320.803623 
L 153.763636 337.396701 
L 170.672727 348.47799 
L 187.581818 353.484998 
L 204.490909 358.499315 
L 221.4 361.987959 
L 238.309091 364.178427 
L 255.218182 365.37991 
L 272.127273 365.943476 
L 289.036364 367.672275 
L 305.945455 368.112895 
L 322.854545 367.631526 
L 339.763636 368.529815 
L 356.672727 368.396368 
L 373.581818 368.529589 
" clip-path="url(#pf87176115c)" style="fill: none; stroke-dasharray: 1.5,2.475; stroke-dashoffset: 0; stroke: #f4eb71; stroke-width: 1.5"/>
   </g>
   <g id="line2d_30">
    <path d="M 69.218182 68.71853 
L 86.127273 225.197279 
L 103.036364 264.713228 
L 119.945455 303.929714 
L 136.854545 326.67471 
L 153.763636 338.032811 
L 170.672727 349.123228 
L 187.581818 355.78217 
L 204.490909 359.419453 
L 221.4 362.669279 
L 238.309091 364.393202 
L 255.218182 366.617758 
L 272.127273 367.259542 
L 289.036364 367.783978 
L 305.945455 367.166826 
L 322.854545 369.36 
L 339.763636 367.506012 
L 356.672727 368.937491 
L 373.581818 368.34216 
" clip-path="url(#pf87176115c)" style="fill: none; stroke-dasharray: 1.5,2.475; stroke-dashoffset: 0; stroke: #f2e962; stroke-width: 1.5"/>
   </g>
   <g id="line2d_31">
    <path d="M 69.218182 68.224559 
L 86.127273 224.587353 
L 103.036364 263.08811 
L 119.945455 297.437491 
L 136.854545 324.58485 
L 153.763636 339.607469 
L 170.672727 348.221703 
L 187.581818 353.968112 
L 204.490909 357.977319 
L 221.4 363.171094 
L 238.309091 365.202322 
L 255.218182 366.003621 
L 272.127273 366.059792 
L 289.036364 368.30908 
L 305.945455 368.435397 
L 322.854545 368.306937 
L 339.763636 368.445262 
L 356.672727 368.210098 
L 373.581818 368.676682 
" clip-path="url(#pf87176115c)" style="fill: none; stroke-dasharray: 1.5,2.475; stroke-dashoffset: 0; stroke: #f2e75a; stroke-width: 1.5"/>
   </g>
   <g id="line2d_32">
    <path d="M 69.218182 114.223733 
L 86.127273 225.085454 
L 103.036364 247.172529 
L 119.945455 308.869586 
L 136.854545 317.777859 
L 153.763636 336.15934 
L 170.672727 348.082784 
L 187.581818 354.396224 
L 204.490909 358.393129 
L 221.4 363.029562 
L 238.309091 363.981971 
L 255.218182 365.777664 
L 272.127273 365.983625 
L 289.036364 367.039478 
L 305.945455 368.38904 
L 322.854545 368.223947 
L 339.763636 368.437791 
L 356.672727 368.909534 
L 373.581818 368.976626 
" clip-path="url(#pf87176115c)" style="fill: none; stroke-dasharray: 1.5,2.475; stroke-dashoffset: 0; stroke: #f1e54a; stroke-width: 1.5"/>
   </g>
   <g id="line2d_33">
    <path d="M 69.218182 70.110245 
L 86.127273 224.780385 
L 103.036364 256.211221 
L 119.945455 306.423857 
L 136.854545 320.605344 
L 153.763636 334.879422 
L 170.672727 347.585152 
L 187.581818 355.803307 
L 204.490909 358.994115 
L 221.4 363.436258 
L 238.309091 364.427978 
L 255.218182 365.214065 
L 272.127273 367.769625 
L 289.036364 366.985408 
L 305.945455 367.800653 
L 322.854545 368.6903 
L 339.763636 368.700396 
L 356.672727 368.576066 
L 373.581818 368.710314 
" clip-path="url(#pf87176115c)" style="fill: none; stroke-dasharray: 1.5,2.475; stroke-dashoffset: 0; stroke: #f0e442; stroke-width: 1.5"/>
   </g>
   <g id="patch_3">
    <path d="M 54 384.48 
L 54 51.84 
" style="fill: none; stroke: #000000; stroke-width: 0.8; stroke-linejoin: miter; stroke-linecap: square"/>
   </g>
   <g id="patch_4">
    <path d="M 388.8 384.48 
L 388.8 51.84 
" style="fill: none; stroke: #000000; stroke-width: 0.8; stroke-linejoin: miter; stroke-linecap: square"/>
   </g>
   <g id="patch_5">
    <path d="M 54 384.48 
L 388.8 384.48 
" style="fill: none; stroke: #000000; stroke-width: 0.8; stroke-linejoin: miter; stroke-linecap: square"/>
   </g>
   <g id="patch_6">
    <path d="M 54 51.84 
L 388.8 51.84 
" style="fill: none; stroke: #000000; stroke-width: 0.8; stroke-linejoin: miter; stroke-linecap: square"/>
   </g>
   <g id="legend_1">
    <g id="patch_7">
     <path d="M 185.040625 74.518125 
L 381.8 74.518125 
Q 383.8 74.518125 383.8 72.518125 
L 383.8 58.84 
Q 383.8 56.84 381.8 56.84 
L 185.040625 56.84 
Q 183.040625 56.84 183.040625 58.84 
L 183.040625 72.518125 
Q 183.040625 74.518125 185.040625 74.518125 
z
" style="fill: #ffffff; opacity: 0.8; stroke: #cccccc; stroke-linejoin: miter"/>
    </g>
    <g id="line2d_34">
     <path d="M 187.040625 64.938438 
L 197.040625 64.938438 
L 207.040625 64.938438 
" style="fill: none; stroke: #0072b2; stroke-width: 4; stroke-linecap: square"/>
    </g>
    <g id="text_16">
     <!-- Districts -->
     <g transform="translate(215.040625 68.438438) scale(0.1 -0.1)">
      <defs>
       <path id="DejaVuSans-44" d="M 1259 4147 
L 1259 519 
L 2022 519 
Q 2988 519 3436 956 
Q 3884 1394 3884 2338 
Q 3884 3275 3436 3711 
Q 2988 4147 2022 4147 
L 1259 4147 
z
M 628 4666 
L 1925 4666 
Q 3281 4666 3915 4102 
Q 4550 3538 4550 2338 
Q 4550 1131 3912 565 
Q 3275 0 1925 0 
L 628 0 
L 628 4666 
z
" transform="scale(0.015625)"/>
      </defs>
      <use xlink:href="#DejaVuSans-44"/>
      <use xlink:href="#DejaVuSans-69" x="77.001953"/>
      <use xlink:href="#DejaVuSans-73" x="104.785156"/>
      <use xlink:href="#DejaVuSans-74" x="156.884766"/>
      <use xlink:href="#DejaVuSans-72" x="196.09375"/>
      <use xlink:href="#DejaVuSans-69" x="237.207031"/>
      <use xlink:href="#DejaVuSans-63" x="264.990234"/>
      <use xlink:href="#DejaVuSans-74" x="319.970703"/>
      <use xlink:href="#DejaVuSans-73" x="359.179688"/>
     </g>
    </g>
    <g id="line2d_35">
     <path d="M 276.165625 64.938438 
L 286.165625 64.938438 
L 296.165625 64.938438 
" style="fill: none; stroke-dasharray: 4,6.6; stroke-dashoffset: 0; stroke: #f0e442; stroke-width: 4"/>
    </g>
    <g id="text_17">
     <!-- Neighborhoods -->
     <g transform="translate(304.165625 68.438438) scale(0.1 -0.1)">
      <defs>
       <path id="DejaVuSans-4e" d="M 628 4666 
L 1478 4666 
L 3547 763 
L 3547 4666 
L 4159 4666 
L 4159 0 
L 3309 0 
L 1241 3903 
L 1241 0 
L 628 0 
L 628 4666 
z
" transform="scale(0.015625)"/>
       <path id="DejaVuSans-67" d="M 2906 1791 
Q 2906 2416 2648 2759 
Q 2391 3103 1925 3103 
Q 1463 3103 1205 2759 
Q 947 2416 947 1791 
Q 947 1169 1205 825 
Q 1463 481 1925 481 
Q 2391 481 2648 825 
Q 2906 1169 2906 1791 
z
M 3481 434 
Q 3481 -459 3084 -895 
Q 2688 -1331 1869 -1331 
Q 1566 -1331 1297 -1286 
Q 1028 -1241 775 -1147 
L 775 -588 
Q 1028 -725 1275 -790 
Q 1522 -856 1778 -856 
Q 2344 -856 2625 -561 
Q 2906 -266 2906 331 
L 2906 616 
Q 2728 306 2450 153 
Q 2172 0 1784 0 
Q 1141 0 747 490 
Q 353 981 353 1791 
Q 353 2603 747 3093 
Q 1141 3584 1784 3584 
Q 2172 3584 2450 3431 
Q 2728 3278 2906 2969 
L 2906 3500 
L 3481 3500 
L 3481 434 
z
" transform="scale(0.015625)"/>
       <path id="DejaVuSans-68" d="M 3513 2113 
L 3513 0 
L 2938 0 
L 2938 2094 
Q 2938 2591 2744 2837 
Q 2550 3084 2163 3084 
Q 1697 3084 1428 2787 
Q 1159 2491 1159 1978 
L 1159 0 
L 581 0 
L 581 4863 
L 1159 4863 
L 1159 2956 
Q 1366 3272 1645 3428 
Q 1925 3584 2291 3584 
Q 2894 3584 3203 3211 
Q 3513 2838 3513 2113 
z
" transform="scale(0.015625)"/>
       <path id="DejaVuSans-62" d="M 3116 1747 
Q 3116 2381 2855 2742 
Q 2594 3103 2138 3103 
Q 1681 3103 1420 2742 
Q 1159 2381 1159 1747 
Q 1159 1113 1420 752 
Q 1681 391 2138 391 
Q 2594 391 2855 752 
Q 3116 1113 3116 1747 
z
M 1159 2969 
Q 1341 3281 1617 3432 
Q 1894 3584 2278 3584 
Q 2916 3584 3314 3078 
Q 3713 2572 3713 1747 
Q 3713 922 3314 415 
Q 2916 -91 2278 -91 
Q 1894 -91 1617 61 
Q 1341 213 1159 525 
L 1159 0 
L 581 0 
L 581 4863 
L 1159 4863 
L 1159 2969 
z
" transform="scale(0.015625)"/>
      </defs>
      <use xlink:href="#DejaVuSans-4e"/>
      <use xlink:href="#DejaVuSans-65" x="74.804688"/>
      <use xlink:href="#DejaVuSans-69" x="136.328125"/>
      <use xlink:href="#DejaVuSans-67" x="164.111328"/>
      <use xlink:href="#DejaVuSans-68" x="227.587891"/>
      <use xlink:href="#DejaVuSans-62" x="290.966797"/>
      <use xlink:href="#DejaVuSans-6f" x="354.443359"/>
      <use xlink:href="#DejaVuSans-72" x="415.625"/>
      <use xlink:href="#DejaVuSans-68" x="454.988281"/>
      <use xlink:href="#DejaVuSans-6f" x="518.367188"/>
      <use xlink:href="#DejaVuSans-6f" x="579.548828"/>
      <use xlink:href="#DejaVuSans-64" x="640.730469"/>
      <use xlink:href="#DejaVuSans-73" x="704.207031"/>
     </g>
    </g>
   </g>
  </g>
 </g>
 <defs>
  <clipPath id="pf87176115c">
   <rect x="54" y="51.84" width="334.8" height="332.64"/>
  </clipPath>
 </defs>
</svg>
