<?xml version="1.0" encoding="utf-8" standalone="no"?>
<!DOCTYPE svg PUBLIC "-//W3C//DTD SVG 1.1//EN"
  "http://www.w3.org/Graphics/SVG/1.1/DTD/svg11.dtd">
<svg xmlns:xlink="http://www.w3.org/1999/xlink" width="430.220026pt" height="457.92pt" viewBox="0 0 430.220026 457.92" xmlns="http://www.w3.org/2000/svg" version="1.1">
 <metadata>
  <rdf:RDF xmlns:dc="http://purl.org/dc/elements/1.1/" xmlns:cc="http://creativecommons.org/ns#" xmlns:rdf="http://www.w3.org/1999/02/22-rdf-syntax-ns#">
   <cc:Work>
    <dc:type rdf:resource="http://purl.org/dc/dcmitype/StillImage"/>
    <dc:date>2023-09-28T10:41:21.126996</dc:date>
    <dc:format>image/svg+xml</dc:format>
    <dc:creator>
     <cc:Agent>
      <dc:title>Matplotlib v3.8.0, https://matplotlib.org/</dc:title>
     </cc:Agent>
    </dc:creator>
   </cc:Work>
  </rdf:RDF>
 </metadata>
 <defs>
  <style type="text/css">*{stroke-linejoin: round; stroke-linecap: butt}</style>
 </defs>
 <g id="figure_1">
  <g id="patch_1">
   <path d="M 0 457.92 
L 430.220026 457.92 
L 430.220026 0 
L 0 0 
z
" style="fill: #ffffff"/>
  </g>
  <g id="axes_1">
   <g id="PatchCollection_1">
    <path d="M 26.10091 218.637947 
L 32.779017 237.316323 
L 36.079871 246.71209 
L 37.768786 251.919397 
L 38.920898 258.824914 
L 39.689223 264.824826 
L 39.61314 268.673921 
L 38.462644 271.61753 
L 40.688128 272.975654 
L 42.683423 274.33381 
L 52.583321 281.237713 
L 54.808918 282.822201 
L 60.027607 286.557039 
L 61.946256 287.915146 
L 75.45383 297.648121 
L 78.216782 299.572023 
L 80.289014 301.043244 
L 82.130991 302.288096 
L 82.284492 302.401267 
L 88.577986 306.701637 
L 92.875977 309.417542 
L 97.557758 312.359731 
L 99.16953 313.378175 
L 100.397494 313.943886 
L 101.165 314.396511 
L 102.009245 314.849114 
L 102.699984 315.18855 
L 103.697708 315.641108 
L 104.618695 316.093687 
L 105.693193 316.659429 
L 108.302659 317.903986 
L 116.898683 322.2034 
L 123.806307 325.710758 
L 128.9487 328.312934 
L 131.021046 329.444354 
L 137.238058 332.612153 
L 139.924437 333.969754 
L 145.911319 337.137541 
L 148.213992 338.382029 
L 153.279817 340.870815 
L 154.584671 341.549595 
L 158.959786 343.812164 
L 163.104665 345.96158 
L 168.707945 348.789658 
L 173.543713 351.27836 
L 182.985093 356.142532 
L 192.119745 361.233101 
L 196.111326 363.269145 
L 196.571891 363.495363 
L 203.096632 366.775553 
L 213.689992 372.317979 
L 214.994931 372.883419 
L 220.291722 375.711155 
L 220.905851 376.05049 
L 224.974374 378.086304 
L 227.968307 379.782987 
L 233.87942 383.063137 
L 251.151771 391.205357 
L 286.620723 410.657586 
L 322.93655 430.56 
L 348.154639 381.184643 
L 360.570505 356.836304 
L 361.03033 355.930316 
L 369.699269 351.622238 
L 390.010536 317.531639 
L 395.298696 308.584186 
L 395.451826 308.131236 
L 396.600641 305.186946 
L 402.878448 286.276338 
L 404.103391 282.652723 
L 404.119115 204.086078 
L 404.109797 192.085981 
L 396.407353 152.58211 
L 356.211415 158.498311 
L 354.138527 156.348788 
L 353.292513 153.29274 
L 352.523694 150.91589 
L 347.459032 148.994818 
L 345.310644 148.543445 
L 325.822083 144.820466 
L 319.530527 143.579202 
L 319.377094 143.5793 
L 304.722517 140.758213 
L 276.18106 135.340951 
L 271.961208 134.437644 
L 267.818146 133.647473 
L 265.746094 132.290103 
L 264.978759 131.950896 
L 263.29201 133.763151 
L 247.181755 133.658454 
L 216.419112 134.01313 
L 213.734078 134.014368 
L 213.580752 134.240856 
L 209.286025 137.186237 
L 182.749832 155.424229 
L 176.000487 160.068494 
L 170.707562 161.768697 
L 169.096685 162.335362 
L 160.88894 165.508303 
L 159.278085 166.18815 
L 156.746676 167.094746 
L 152.45095 168.681215 
L 143.706068 172.080529 
L 131.96935 176.612775 
L 130.895405 177.065954 
L 121.920219 180.80465 
L 120.846259 181.257812 
L 115.476403 183.410383 
L 109.799718 185.90262 
L 108.11206 186.69556 
L 107.268214 187.035424 
L 106.347676 187.488516 
L 90.774672 193.719143 
L 89.700666 194.172249 
L 80.264653 198.023644 
L 77.272753 199.382846 
L 74.817828 200.402285 
L 72.593042 201.308455 
L 69.831231 202.441151 
L 65.841919 204.026931 
L 64.384278 204.593281 
L 60.394937 206.179024 
L 59.551037 206.518821 
L 49.500856 210.483062 
L 48.196614 210.936136 
L 46.048453 211.728985 
L 39.066859 214.107574 
L 35.000644 215.579953 
L 34.617034 215.693223 
L 33.005901 216.37273 
L 29.016348 217.618638 
L 27.098299 218.298175 
L 26.10091 218.637947 
" clip-path="url(#p0b7d1eab3c)" style="fill: url(#h1b86b8cb13); stroke: #2d2d2d"/>
   </g>
   <g id="PatchCollection_2">
    <path d="M 176.738785 205.144451 
L 171.318219 207.146974 
L 160.203917 211.370467 
L 158.756746 211.003072 
L 157.787474 210.364932 
L 154.069424 199.82091 
L 153.796777 199.047794 
L 153.40204 197.9917 
L 149.273507 186.954202 
L 148.829637 185.767933 
L 152.2157 184.530498 
L 153.415471 184.091952 
L 157.401397 182.634648 
L 162.033207 180.937075 
L 156.727446 166.957771 
L 158.744885 166.187214 
L 160.888121 165.369057 
L 169.105084 162.231207 
L 171.753026 161.220361 
L 176.797079 160.705543 
L 178.605272 160.539537 
L 179.2082 160.479852 
L 178.771829 160.045983 
L 178.884963 159.710738 
L 179.787793 159.345843 
L 179.478125 158.119918 
L 180.643616 156.566226 
L 178.885348 156.844295 
L 177.979332 156.908055 
L 177.019545 156.802021 
L 176.05195 156.350703 
L 175.151741 155.577844 
L 173.412342 153.107184 
L 171.188322 149.220466 
L 166.924684 141.966563 
L 165.273211 140.544157 
L 165.055205 140.193293 
L 164.651778 140.456089 
L 157.528082 145.094629 
L 151.812898 137.058874 
L 147.816344 131.417962 
L 152.42091 127.495919 
L 154.266793 125.738259 
L 154.433973 125.578574 
L 155.488429 124.574032 
L 152.522491 119.79203 
L 150.066254 115.80569 
L 148.127384 112.658036 
L 144.849161 107.338362 
L 145.576981 106.830936 
L 146.169825 106.432236 
L 146.711283 106.067516 
L 158.650806 98.027691 
L 159.215258 97.65163 
L 158.932031 97.201163 
L 158.747817 96.906888 
L 158.045505 95.786379 
L 157.618747 95.10615 
L 156.807448 93.812469 
L 155.942425 92.432768 
L 155.091989 91.076835 
L 154.88552 90.747472 
L 154.467212 90.079691 
L 149.696272 82.505456 
L 149.2396 81.779948 
L 149.035442 81.457375 
L 147.891869 79.693982 
L 151.560632 76.986997 
L 154.383576 75.107852 
L 155.470278 74.425943 
L 160.352303 71.229402 
L 166.579746 80.211319 
L 179.99637 71.505964 
L 187.187311 66.927121 
L 203.780042 55.489305 
L 204.255473 55.168713 
L 205.039144 54.593264 
L 199.31742 46.876064 
L 198.772516 46.175537 
L 194.351182 40.516993 
L 192.343523 37.919701 
L 185.426687 29.186254 
L 184.656209 28.234483 
L 185.894581 27.36 
L 191.69247 34.65503 
L 200.058456 45.288552 
L 200.555801 45.983437 
L 206.308925 53.57495 
L 210.578631 59.319511 
L 211.707656 60.820148 
L 211.946818 62.150243 
L 216.952551 68.529524 
L 218.585927 70.782752 
L 220.94933 74.155267 
L 223.649768 78.073279 
L 224.623353 76.799216 
L 226.540658 74.383553 
L 229.477059 71.2904 
L 232.358106 68.003673 
L 234.5163 65.769 
L 242.050715 72.416254 
L 249.214468 78.433031 
L 257.376787 69.409394 
L 261.084009 65.081699 
L 275.745427 78.264728 
L 282.082927 71.349728 
L 285.133138 67.941517 
L 288.183315 64.534422 
L 292.335759 59.889288 
L 292.591803 59.631021 
L 293.4496 58.716917 
L 294.434471 59.959367 
L 301.187987 69.390149 
L 308.872873 79.934253 
L 312.103071 83.639838 
L 313.428793 85.176387 
L 316.820101 88.824109 
L 317.299861 89.340038 
L 318.495044 90.625334 
L 323.910182 95.706085 
L 330.442527 101.09625 
L 331.942276 102.337168 
L 334.352616 102.447658 
L 335.44962 102.497876 
L 335.757242 102.513522 
L 336.747617 102.562677 
L 340.107333 99.91701 
L 345.363903 95.893421 
L 353.946097 89.010099 
L 354.153747 90.886957 
L 354.317195 100.921673 
L 354.276126 109.176886 
L 354.512061 109.794843 
L 355.020864 110.084304 
L 356.576446 110.979835 
L 369.460031 103.157041 
L 377.390882 98.508595 
L 384.519105 112.261598 
L 389.60003 122.7964 
L 389.794508 123.317014 
L 390.382729 125.119986 
L 389.753136 125.426124 
L 389.464007 125.537286 
L 389.141105 125.623567 
L 388.586538 125.725872 
L 384.629739 125.888454 
L 387.036952 126.807045 
L 389.011371 127.549346 
L 389.575398 127.783264 
L 389.851697 127.951737 
L 391.309771 129.626126 
L 392.784526 138.11906 
L 393.194679 140.789343 
L 393.423649 142.268806 
L 393.733992 143.817266 
L 393.986773 145.332938 
L 394.072319 145.845708 
L 394.556834 149.439715 
L 394.751087 150.655429 
L 394.835881 151.187445 
L 395.023966 152.362408 
L 395.701299 152.252079 
L 396.245926 152.163361 
L 397.093552 152.026863 
L 397.34704 153.447437 
L 398.285176 153.288227 
L 400.823445 152.870799 
L 399.471565 153.719773 
L 398.973344 154.299784 
L 398.692141 154.757363 
L 397.881755 156.441397 
L 399.819848 166.661516 
L 399.028299 165.918344 
L 398.490075 165.369696 
L 398.035709 165.124381 
L 397.048873 164.82853 
L 399.136126 177.44969 
L 399.971596 183.403819 
L 401.712736 194.751634 
L 401.671454 195.93696 
L 401.548656 203.831085 
L 401.843116 210.573556 
L 401.748881 215.716691 
L 401.557354 221.05575 
L 401.379669 228.429154 
L 402.314866 228.286921 
L 402.857265 228.204991 
L 403.655901 228.082107 
L 403.629953 229.250439 
L 403.621792 229.609316 
L 403.677043 234.564406 
L 403.614847 245.386047 
L 402.969932 260.737603 
L 402.951903 261.235733 
L 402.85354 264.019603 
L 402.041803 264.132307 
L 401.902169 264.155057 
L 401.452566 264.215404 
L 401.022923 264.288189 
L 400.828824 264.330226 
L 400.043231 264.516493 
L 400.032906 265.058769 
L 400.03159 265.341791 
L 400.026723 265.997271 
L 400.026025 266.087838 
L 400.022549 266.556523 
L 400.015568 267.455403 
L 400.015115 267.864085 
L 399.994585 273.093194 
L 399.902281 275.793283 
L 399.837047 277.774479 
L 399.526539 280.113601 
L 399.138092 281.886741 
L 398.243317 284.819523 
L 396.307543 291.164064 
L 395.345875 293.958777 
L 393.317871 299.178087 
L 391.631714 303.915996 
L 391.449466 304.426703 
L 391.330001 304.751701 
L 391.166884 305.192204 
L 391.040527 305.536452 
L 390.439179 306.915782 
L 388.96463 306.351982 
L 388.180914 306.04804 
L 386.748577 305.488732 
L 380.435032 302.899817 
L 375.688317 301.110078 
L 371.757487 299.525751 
L 363.562024 296.26669 
L 358.801474 294.297958 
L 354.310383 292.452398 
L 352.96479 291.847665 
L 349.489321 290.553822 
L 347.142165 289.688251 
L 345.647045 289.220586 
L 344.451308 288.920262 
L 342.518865 288.543452 
L 342.254865 288.497214 
L 341.934074 288.440826 
L 340.501269 288.199522 
L 339.653259 288.067637 
L 336.445339 287.468638 
L 333.687158 286.971213 
L 328.602091 286.025858 
L 328.369563 285.993178 
L 327.554552 285.856726 
L 327.166234 285.794713 
L 326.922192 285.755248 
L 324.346709 285.340304 
L 321.569345 284.813402 
L 315.874975 283.757383 
L 307.714923 282.33151 
L 299.960062 280.897357 
L 298.452074 280.625432 
L 297.565706 280.475397 
L 296.63559 280.309537 
L 292.938903 279.615502 
L 288.191624 278.723944 
L 282.947071 277.739803 
L 277.715628 276.840515 
L 273.853216 276.104569 
L 272.306894 275.847317 
L 269.919497 275.449016 
L 269.367734 275.357622 
L 268.909596 275.285421 
L 267.507168 274.356752 
L 266.656585 273.665515 
L 266.176024 273.278606 
L 265.541184 272.805742 
L 264.858668 272.146109 
L 264.13392 271.429894 
L 262.577434 269.374875 
L 253.971367 258.202406 
L 249.333603 252.027048 
L 248.0567 250.327319 
L 247.410189 249.468401 
L 246.324486 248.025552 
L 246.186277 247.841093 
L 245.826945 247.379388 
L 244.964676 246.218311 
L 244.603815 245.76453 
L 244.287487 245.36733 
L 244.165409 245.214561 
L 243.697827 244.626115 
L 242.265083 242.706828 
L 241.769094 242.075377 
L 239.290696 238.921507 
L 238.506012 237.88944 
L 234.072087 232.10556 
L 232.976449 230.615144 
L 227.856131 223.670035 
L 226.962624 224.417642 
L 226.747108 224.597747 
L 226.388938 224.897921 
L 225.503864 225.638729 
L 223.699653 223.270137 
L 217.62686 215.297459 
L 217.570042 215.209183 
L 217.40129 215.303225 
L 217.203392 215.419921 
L 217.058431 215.528669 
L 216.592066 215.803982 
L 215.028822 216.729618 
L 199.155953 225.957556 
L 198.861556 226.49882 
L 198.622419 227.078551 
L 198.546578 227.353681 
L 196.1072 226.840768 
L 196.157737 226.601876 
L 196.249574 226.053908 
L 195.537866 225.007035 
L 189.734122 215.565647 
L 189.360982 214.959005 
L 189.132861 214.372681 
L 187.585189 210.39518 
L 184.764868 203.146474 
L 184.435375 202.300942 
L 183.358332 202.698745 
L 176.738785 205.144451 
" clip-path="url(#p0b7d1eab3c)" style="fill: url(#h3a01679173); stroke: #2d2d2d"/>
   </g>
   <g id="PatchCollection_3">
    <path d="M 182.749832 155.424229 
L 209.286025 137.186237 
L 213.580752 134.240856 
L 213.734078 134.014368 
L 216.419112 134.01313 
L 247.181755 133.658454 
L 263.29201 133.763151 
L 264.978759 131.950896 
L 265.746094 132.290103 
L 267.818146 133.647473 
L 271.961208 134.437644 
L 276.18106 135.340951 
L 304.722517 140.758213 
L 319.377094 143.5793 
L 319.530527 143.579202 
L 325.822083 144.820466 
L 345.310644 148.543445 
L 347.459032 148.994818 
L 352.523694 150.91589 
L 353.292513 153.29274 
L 354.138527 156.348788 
L 356.211415 158.498311 
L 396.407353 152.58211 
L 399.002522 165.892067 
L 398.490075 165.369696 
L 398.035709 165.124381 
L 397.048873 164.82853 
L 399.136126 177.44969 
L 399.971596 183.403819 
L 401.712736 194.751634 
L 401.671454 195.93696 
L 401.548656 203.831085 
L 401.843116 210.573556 
L 401.748881 215.716691 
L 401.557354 221.05575 
L 401.379669 228.429154 
L 402.314866 228.286921 
L 402.857265 228.204991 
L 403.655901 228.082107 
L 403.629953 229.250439 
L 403.621792 229.609316 
L 403.677043 234.564406 
L 403.614847 245.386047 
L 402.969932 260.737603 
L 402.951903 261.235733 
L 402.85354 264.019603 
L 402.041803 264.132307 
L 401.902169 264.155057 
L 401.452566 264.215404 
L 401.022923 264.288189 
L 400.828824 264.330226 
L 400.043231 264.516493 
L 400.032906 265.058769 
L 400.03159 265.341791 
L 400.026723 265.997271 
L 400.026025 266.087838 
L 400.022549 266.556523 
L 400.015568 267.455403 
L 400.015115 267.864085 
L 399.994585 273.093194 
L 399.902281 275.793283 
L 399.837047 277.774479 
L 399.526539 280.113601 
L 399.138092 281.886741 
L 398.243317 284.819523 
L 396.307543 291.164064 
L 395.345875 293.958777 
L 393.317871 299.178087 
L 391.631714 303.915996 
L 391.449466 304.426703 
L 391.330001 304.751701 
L 391.166884 305.192204 
L 391.040527 305.536452 
L 390.439179 306.915782 
L 388.96463 306.351982 
L 388.180914 306.04804 
L 386.748577 305.488732 
L 380.435032 302.899817 
L 375.688317 301.110078 
L 371.757487 299.525751 
L 363.562024 296.26669 
L 358.801474 294.297958 
L 354.310383 292.452398 
L 352.96479 291.847665 
L 349.489321 290.553822 
L 347.142165 289.688251 
L 345.647045 289.220586 
L 344.451308 288.920262 
L 342.518865 288.543452 
L 342.254865 288.497214 
L 341.934074 288.440826 
L 340.501269 288.199522 
L 339.653259 288.067637 
L 336.445339 287.468638 
L 333.687158 286.971213 
L 328.602091 286.025858 
L 328.369563 285.993178 
L 327.554552 285.856726 
L 327.166234 285.794713 
L 326.922192 285.755248 
L 324.346709 285.340304 
L 321.569345 284.813402 
L 315.874975 283.757383 
L 307.714923 282.33151 
L 299.960062 280.897357 
L 298.452074 280.625432 
L 297.565706 280.475397 
L 296.63559 280.309537 
L 292.938903 279.615502 
L 288.191624 278.723944 
L 282.947071 277.739803 
L 277.715628 276.840515 
L 273.853216 276.104569 
L 272.306894 275.847317 
L 269.919497 275.449016 
L 269.367734 275.357622 
L 268.909596 275.285421 
L 267.507168 274.356752 
L 266.656585 273.665515 
L 266.176024 273.278606 
L 265.541184 272.805742 
L 264.858668 272.146109 
L 264.13392 271.429894 
L 262.577434 269.374875 
L 253.971367 258.202406 
L 249.333603 252.027048 
L 248.0567 250.327319 
L 247.410189 249.468401 
L 246.324486 248.025552 
L 246.186277 247.841093 
L 245.826945 247.379388 
L 244.964676 246.218311 
L 244.603815 245.76453 
L 244.287487 245.36733 
L 244.165409 245.214561 
L 243.697827 244.626115 
L 242.265083 242.706828 
L 241.769094 242.075377 
L 239.290696 238.921507 
L 238.506012 237.88944 
L 234.072087 232.10556 
L 232.976449 230.615144 
L 227.856131 223.670035 
L 226.962624 224.417642 
L 226.747108 224.597747 
L 226.388938 224.897921 
L 225.503864 225.638729 
L 223.699653 223.270137 
L 217.62686 215.297459 
L 217.570042 215.209183 
L 217.40129 215.303225 
L 217.203392 215.419921 
L 217.058431 215.528669 
L 216.592066 215.803982 
L 215.028822 216.729618 
L 199.155953 225.957556 
L 198.861556 226.49882 
L 198.622419 227.078551 
L 198.546578 227.353681 
L 196.1072 226.840768 
L 196.157737 226.601876 
L 196.249574 226.053908 
L 195.537866 225.007035 
L 189.734122 215.565647 
L 189.360982 214.959005 
L 189.132861 214.372681 
L 187.585189 210.39518 
L 184.764868 203.146474 
L 184.435375 202.300942 
L 183.358332 202.698745 
L 176.738785 205.144451 
L 171.318219 207.146974 
L 160.203917 211.370467 
L 158.756746 211.003072 
L 157.787474 210.364932 
L 154.069424 199.82091 
L 153.796777 199.047794 
L 153.40204 197.9917 
L 149.273507 186.954202 
L 148.829637 185.767933 
L 152.2157 184.530498 
L 153.415471 184.091952 
L 157.401397 182.634648 
L 162.033207 180.937075 
L 156.775514 167.084418 
L 159.278085 166.18815 
L 160.88894 165.508303 
L 169.096685 162.335362 
L 170.707562 161.768697 
L 172.722694 161.121393 
L 176.797079 160.705543 
L 178.605272 160.539537 
L 179.2082 160.479852 
L 178.771829 160.045983 
L 178.884963 159.710738 
L 179.787793 159.345843 
L 179.478125 158.119918 
L 180.167159 157.201382 
L 182.749832 155.424229 
" clip-path="url(#p0b7d1eab3c)" style="fill: url(#h93115d98ae); stroke: #2d2d2d"/>
   </g>
   <g id="text_1">
    <g id="patch_2">
     <path d="M 133.427941 320.935784 
L 234.260754 320.935784 
Q 238.460754 320.935784 238.460754 316.735784 
L 238.460754 303.186409 
Q 238.460754 298.986409 234.260754 298.986409 
L 133.427941 298.986409 
Q 129.227941 298.986409 129.227941 303.186409 
L 129.227941 316.735784 
Q 129.227941 320.935784 133.427941 320.935784 
z
" style="fill: #ffffff; stroke: #2d2d2d; stroke-linejoin: miter"/>
    </g>
    <!-- False negative -->
    <g transform="translate(133.427941 313.824221) scale(0.14 -0.14)">
     <defs>
      <path id="DejaVuSans-46" d="M 628 4666 
L 3309 4666 
L 3309 4134 
L 1259 4134 
L 1259 2759 
L 3109 2759 
L 3109 2228 
L 1259 2228 
L 1259 0 
L 628 0 
L 628 4666 
z
" transform="scale(0.015625)"/>
      <path id="DejaVuSans-61" d="M 2194 1759 
Q 1497 1759 1228 1600 
Q 959 1441 959 1056 
Q 959 750 1161 570 
Q 1363 391 1709 391 
Q 2188 391 2477 730 
Q 2766 1069 2766 1631 
L 2766 1759 
L 2194 1759 
z
M 3341 1997 
L 3341 0 
L 2766 0 
L 2766 531 
Q 2569 213 2275 61 
Q 1981 -91 1556 -91 
Q 1019 -91 701 211 
Q 384 513 384 1019 
Q 384 1609 779 1909 
Q 1175 2209 1959 2209 
L 2766 2209 
L 2766 2266 
Q 2766 2663 2505 2880 
Q 2244 3097 1772 3097 
Q 1472 3097 1187 3025 
Q 903 2953 641 2809 
L 641 3341 
Q 956 3463 1253 3523 
Q 1550 3584 1831 3584 
Q 2591 3584 2966 3190 
Q 3341 2797 3341 1997 
z
" transform="scale(0.015625)"/>
      <path id="DejaVuSans-6c" d="M 603 4863 
L 1178 4863 
L 1178 0 
L 603 0 
L 603 4863 
z
" transform="scale(0.015625)"/>
      <path id="DejaVuSans-73" d="M 2834 3397 
L 2834 2853 
Q 2591 2978 2328 3040 
Q 2066 3103 1784 3103 
Q 1356 3103 1142 2972 
Q 928 2841 928 2578 
Q 928 2378 1081 2264 
Q 1234 2150 1697 2047 
L 1894 2003 
Q 2506 1872 2764 1633 
Q 3022 1394 3022 966 
Q 3022 478 2636 193 
Q 2250 -91 1575 -91 
Q 1294 -91 989 -36 
Q 684 19 347 128 
L 347 722 
Q 666 556 975 473 
Q 1284 391 1588 391 
Q 1994 391 2212 530 
Q 2431 669 2431 922 
Q 2431 1156 2273 1281 
Q 2116 1406 1581 1522 
L 1381 1569 
Q 847 1681 609 1914 
Q 372 2147 372 2553 
Q 372 3047 722 3315 
Q 1072 3584 1716 3584 
Q 2034 3584 2315 3537 
Q 2597 3491 2834 3397 
z
" transform="scale(0.015625)"/>
      <path id="DejaVuSans-65" d="M 3597 1894 
L 3597 1613 
L 953 1613 
Q 991 1019 1311 708 
Q 1631 397 2203 397 
Q 2534 397 2845 478 
Q 3156 559 3463 722 
L 3463 178 
Q 3153 47 2828 -22 
Q 2503 -91 2169 -91 
Q 1331 -91 842 396 
Q 353 884 353 1716 
Q 353 2575 817 3079 
Q 1281 3584 2069 3584 
Q 2775 3584 3186 3129 
Q 3597 2675 3597 1894 
z
M 3022 2063 
Q 3016 2534 2758 2815 
Q 2500 3097 2075 3097 
Q 1594 3097 1305 2825 
Q 1016 2553 972 2059 
L 3022 2063 
z
" transform="scale(0.015625)"/>
      <path id="DejaVuSans-20" transform="scale(0.015625)"/>
      <path id="DejaVuSans-6e" d="M 3513 2113 
L 3513 0 
L 2938 0 
L 2938 2094 
Q 2938 2591 2744 2837 
Q 2550 3084 2163 3084 
Q 1697 3084 1428 2787 
Q 1159 2491 1159 1978 
L 1159 0 
L 581 0 
L 581 3500 
L 1159 3500 
L 1159 2956 
Q 1366 3272 1645 3428 
Q 1925 3584 2291 3584 
Q 2894 3584 3203 3211 
Q 3513 2838 3513 2113 
z
" transform="scale(0.015625)"/>
      <path id="DejaVuSans-67" d="M 2906 1791 
Q 2906 2416 2648 2759 
Q 2391 3103 1925 3103 
Q 1463 3103 1205 2759 
Q 947 2416 947 1791 
Q 947 1169 1205 825 
Q 1463 481 1925 481 
Q 2391 481 2648 825 
Q 2906 1169 2906 1791 
z
M 3481 434 
Q 3481 -459 3084 -895 
Q 2688 -1331 1869 -1331 
Q 1566 -1331 1297 -1286 
Q 1028 -1241 775 -1147 
L 775 -588 
Q 1028 -725 1275 -790 
Q 1522 -856 1778 -856 
Q 2344 -856 2625 -561 
Q 2906 -266 2906 331 
L 2906 616 
Q 2728 306 2450 153 
Q 2172 0 1784 0 
Q 1141 0 747 490 
Q 353 981 353 1791 
Q 353 2603 747 3093 
Q 1141 3584 1784 3584 
Q 2172 3584 2450 3431 
Q 2728 3278 2906 2969 
L 2906 3500 
L 3481 3500 
L 3481 434 
z
" transform="scale(0.015625)"/>
      <path id="DejaVuSans-74" d="M 1172 4494 
L 1172 3500 
L 2356 3500 
L 2356 3053 
L 1172 3053 
L 1172 1153 
Q 1172 725 1289 603 
Q 1406 481 1766 481 
L 2356 481 
L 2356 0 
L 1766 0 
Q 1100 0 847 248 
Q 594 497 594 1153 
L 594 3053 
L 172 3053 
L 172 3500 
L 594 3500 
L 594 4494 
L 1172 4494 
z
" transform="scale(0.015625)"/>
      <path id="DejaVuSans-69" d="M 603 3500 
L 1178 3500 
L 1178 0 
L 603 0 
L 603 3500 
z
M 603 4863 
L 1178 4863 
L 1178 4134 
L 603 4134 
L 603 4863 
z
" transform="scale(0.015625)"/>
      <path id="DejaVuSans-76" d="M 191 3500 
L 800 3500 
L 1894 563 
L 2988 3500 
L 3597 3500 
L 2284 0 
L 1503 0 
L 191 3500 
z
" transform="scale(0.015625)"/>
     </defs>
     <use xlink:href="#DejaVuSans-46"/>
     <use xlink:href="#DejaVuSans-61" x="48.394531"/>
     <use xlink:href="#DejaVuSans-6c" x="109.673828"/>
     <use xlink:href="#DejaVuSans-73" x="137.457031"/>
     <use xlink:href="#DejaVuSans-65" x="189.556641"/>
     <use xlink:href="#DejaVuSans-20" x="251.080078"/>
     <use xlink:href="#DejaVuSans-6e" x="282.867188"/>
     <use xlink:href="#DejaVuSans-65" x="346.246094"/>
     <use xlink:href="#DejaVuSans-67" x="407.769531"/>
     <use xlink:href="#DejaVuSans-61" x="471.246094"/>
     <use xlink:href="#DejaVuSans-74" x="532.525391"/>
     <use xlink:href="#DejaVuSans-69" x="571.734375"/>
     <use xlink:href="#DejaVuSans-76" x="599.517578"/>
     <use xlink:href="#DejaVuSans-65" x="658.697266"/>
    </g>
   </g>
   <g id="text_2">
    <g id="patch_3">
     <path d="M 184.342339 117.278193 
L 278.857652 117.278193 
Q 283.057652 117.278193 283.057652 113.078193 
L 283.057652 99.528818 
Q 283.057652 95.328818 278.857652 95.328818 
L 184.342339 95.328818 
Q 180.142339 95.328818 180.142339 99.528818 
L 180.142339 113.078193 
Q 180.142339 117.278193 184.342339 117.278193 
z
" style="fill: #ffffff; stroke: #2d2d2d; stroke-linejoin: miter"/>
    </g>
    <!-- False positive -->
    <g transform="translate(184.342339 110.166631) scale(0.14 -0.14)">
     <defs>
      <path id="DejaVuSans-70" d="M 1159 525 
L 1159 -1331 
L 581 -1331 
L 581 3500 
L 1159 3500 
L 1159 2969 
Q 1341 3281 1617 3432 
Q 1894 3584 2278 3584 
Q 2916 3584 3314 3078 
Q 3713 2572 3713 1747 
Q 3713 922 3314 415 
Q 2916 -91 2278 -91 
Q 1894 -91 1617 61 
Q 1341 213 1159 525 
z
M 3116 1747 
Q 3116 2381 2855 2742 
Q 2594 3103 2138 3103 
Q 1681 3103 1420 2742 
Q 1159 2381 1159 1747 
Q 1159 1113 1420 752 
Q 1681 391 2138 391 
Q 2594 391 2855 752 
Q 3116 1113 3116 1747 
z
" transform="scale(0.015625)"/>
      <path id="DejaVuSans-6f" d="M 1959 3097 
Q 1497 3097 1228 2736 
Q 959 2375 959 1747 
Q 959 1119 1226 758 
Q 1494 397 1959 397 
Q 2419 397 2687 759 
Q 2956 1122 2956 1747 
Q 2956 2369 2687 2733 
Q 2419 3097 1959 3097 
z
M 1959 3584 
Q 2709 3584 3137 3096 
Q 3566 2609 3566 1747 
Q 3566 888 3137 398 
Q 2709 -91 1959 -91 
Q 1206 -91 779 398 
Q 353 888 353 1747 
Q 353 2609 779 3096 
Q 1206 3584 1959 3584 
z
" transform="scale(0.015625)"/>
     </defs>
     <use xlink:href="#DejaVuSans-46"/>
     <use xlink:href="#DejaVuSans-61" x="48.394531"/>
     <use xlink:href="#DejaVuSans-6c" x="109.673828"/>
     <use xlink:href="#DejaVuSans-73" x="137.457031"/>
     <use xlink:href="#DejaVuSans-65" x="189.556641"/>
     <use xlink:href="#DejaVuSans-20" x="251.080078"/>
     <use xlink:href="#DejaVuSans-70" x="282.867188"/>
     <use xlink:href="#DejaVuSans-6f" x="346.34375"/>
     <use xlink:href="#DejaVuSans-73" x="407.525391"/>
     <use xlink:href="#DejaVuSans-69" x="459.625"/>
     <use xlink:href="#DejaVuSans-74" x="487.408203"/>
     <use xlink:href="#DejaVuSans-69" x="526.617188"/>
     <use xlink:href="#DejaVuSans-76" x="554.400391"/>
     <use xlink:href="#DejaVuSans-65" x="613.580078"/>
    </g>
   </g>
   <g id="text_3">
    <g id="patch_4">
     <path d="M 286.171134 219.106989 
L 375.263634 219.106989 
Q 379.463634 219.106989 379.463634 214.906989 
L 379.463634 201.357614 
Q 379.463634 197.157614 375.263634 197.157614 
L 286.171134 197.157614 
Q 281.971134 197.157614 281.971134 201.357614 
L 281.971134 214.906989 
Q 281.971134 219.106989 286.171134 219.106989 
z
" style="fill: #ffffff; stroke: #2d2d2d; stroke-linejoin: miter"/>
    </g>
    <!-- True positive -->
    <g transform="translate(286.171134 211.995426) scale(0.14 -0.14)">
     <defs>
      <path id="DejaVuSans-54" d="M -19 4666 
L 3928 4666 
L 3928 4134 
L 2272 4134 
L 2272 0 
L 1638 0 
L 1638 4134 
L -19 4134 
L -19 4666 
z
" transform="scale(0.015625)"/>
      <path id="DejaVuSans-72" d="M 2631 2963 
Q 2534 3019 2420 3045 
Q 2306 3072 2169 3072 
Q 1681 3072 1420 2755 
Q 1159 2438 1159 1844 
L 1159 0 
L 581 0 
L 581 3500 
L 1159 3500 
L 1159 2956 
Q 1341 3275 1631 3429 
Q 1922 3584 2338 3584 
Q 2397 3584 2469 3576 
Q 2541 3569 2628 3553 
L 2631 2963 
z
" transform="scale(0.015625)"/>
      <path id="DejaVuSans-75" d="M 544 1381 
L 544 3500 
L 1119 3500 
L 1119 1403 
Q 1119 906 1312 657 
Q 1506 409 1894 409 
Q 2359 409 2629 706 
Q 2900 1003 2900 1516 
L 2900 3500 
L 3475 3500 
L 3475 0 
L 2900 0 
L 2900 538 
Q 2691 219 2414 64 
Q 2138 -91 1772 -91 
Q 1169 -91 856 284 
Q 544 659 544 1381 
z
M 1991 3584 
L 1991 3584 
z
" transform="scale(0.015625)"/>
     </defs>
     <use xlink:href="#DejaVuSans-54"/>
     <use xlink:href="#DejaVuSans-72" x="46.333984"/>
     <use xlink:href="#DejaVuSans-75" x="87.447266"/>
     <use xlink:href="#DejaVuSans-65" x="150.826172"/>
     <use xlink:href="#DejaVuSans-20" x="212.349609"/>
     <use xlink:href="#DejaVuSans-70" x="244.136719"/>
     <use xlink:href="#DejaVuSans-6f" x="307.613281"/>
     <use xlink:href="#DejaVuSans-73" x="368.794922"/>
     <use xlink:href="#DejaVuSans-69" x="420.894531"/>
     <use xlink:href="#DejaVuSans-74" x="448.677734"/>
     <use xlink:href="#DejaVuSans-69" x="487.886719"/>
     <use xlink:href="#DejaVuSans-76" x="515.669922"/>
     <use xlink:href="#DejaVuSans-65" x="574.849609"/>
    </g>
   </g>
   <g id="legend_1">
    <g id="patch_5">
     <path d="M 14.2 29.878125 
L 187.990625 29.878125 
Q 189.990625 29.878125 189.990625 27.878125 
L 189.990625 14.2 
Q 189.990625 12.2 187.990625 12.2 
L 14.2 12.2 
Q 12.2 12.2 12.2 14.2 
L 12.2 27.878125 
Q 12.2 29.878125 14.2 29.878125 
z
" style="fill: #ffffff; opacity: 0.8; stroke: #cccccc; stroke-linejoin: miter"/>
    </g>
    <g id="patch_6">
     <path d="M 16.2 23.798437 
L 36.2 23.798437 
L 36.2 16.798437 
L 16.2 16.798437 
z
" style="fill: url(#h177904b747)"/>
    </g>
    <g id="text_4">
     <!-- District -->
     <g transform="translate(44.2 23.798437) scale(0.1 -0.1)">
      <defs>
       <path id="DejaVuSans-44" d="M 1259 4147 
L 1259 519 
L 2022 519 
Q 2988 519 3436 956 
Q 3884 1394 3884 2338 
Q 3884 3275 3436 3711 
Q 2988 4147 2022 4147 
L 1259 4147 
z
M 628 4666 
L 1925 4666 
Q 3281 4666 3915 4102 
Q 4550 3538 4550 2338 
Q 4550 1131 3912 565 
Q 3275 0 1925 0 
L 628 0 
L 628 4666 
z
" transform="scale(0.015625)"/>
       <path id="DejaVuSans-63" d="M 3122 3366 
L 3122 2828 
Q 2878 2963 2633 3030 
Q 2388 3097 2138 3097 
Q 1578 3097 1268 2742 
Q 959 2388 959 1747 
Q 959 1106 1268 751 
Q 1578 397 2138 397 
Q 2388 397 2633 464 
Q 2878 531 3122 666 
L 3122 134 
Q 2881 22 2623 -34 
Q 2366 -91 2075 -91 
Q 1284 -91 818 406 
Q 353 903 353 1747 
Q 353 2603 823 3093 
Q 1294 3584 2113 3584 
Q 2378 3584 2631 3529 
Q 2884 3475 3122 3366 
z
" transform="scale(0.015625)"/>
      </defs>
      <use xlink:href="#DejaVuSans-44"/>
      <use xlink:href="#DejaVuSans-69" x="77.001953"/>
      <use xlink:href="#DejaVuSans-73" x="104.785156"/>
      <use xlink:href="#DejaVuSans-74" x="156.884766"/>
      <use xlink:href="#DejaVuSans-72" x="196.09375"/>
      <use xlink:href="#DejaVuSans-69" x="237.207031"/>
      <use xlink:href="#DejaVuSans-63" x="264.990234"/>
      <use xlink:href="#DejaVuSans-74" x="319.970703"/>
     </g>
    </g>
    <g id="patch_7">
     <path d="M 100.115625 23.798437 
L 120.115625 23.798437 
L 120.115625 16.798437 
L 100.115625 16.798437 
z
" style="fill: url(#h6283bfa17a)"/>
    </g>
    <g id="text_5">
     <!-- Community -->
     <g transform="translate(128.115625 23.798437) scale(0.1 -0.1)">
      <defs>
       <path id="DejaVuSans-43" d="M 4122 4306 
L 4122 3641 
Q 3803 3938 3442 4084 
Q 3081 4231 2675 4231 
Q 1875 4231 1450 3742 
Q 1025 3253 1025 2328 
Q 1025 1406 1450 917 
Q 1875 428 2675 428 
Q 3081 428 3442 575 
Q 3803 722 4122 1019 
L 4122 359 
Q 3791 134 3420 21 
Q 3050 -91 2638 -91 
Q 1578 -91 968 557 
Q 359 1206 359 2328 
Q 359 3453 968 4101 
Q 1578 4750 2638 4750 
Q 3056 4750 3426 4639 
Q 3797 4528 4122 4306 
z
" transform="scale(0.015625)"/>
       <path id="DejaVuSans-6d" d="M 3328 2828 
Q 3544 3216 3844 3400 
Q 4144 3584 4550 3584 
Q 5097 3584 5394 3201 
Q 5691 2819 5691 2113 
L 5691 0 
L 5113 0 
L 5113 2094 
Q 5113 2597 4934 2840 
Q 4756 3084 4391 3084 
Q 3944 3084 3684 2787 
Q 3425 2491 3425 1978 
L 3425 0 
L 2847 0 
L 2847 2094 
Q 2847 2600 2669 2842 
Q 2491 3084 2119 3084 
Q 1678 3084 1418 2786 
Q 1159 2488 1159 1978 
L 1159 0 
L 581 0 
L 581 3500 
L 1159 3500 
L 1159 2956 
Q 1356 3278 1631 3431 
Q 1906 3584 2284 3584 
Q 2666 3584 2933 3390 
Q 3200 3197 3328 2828 
z
" transform="scale(0.015625)"/>
       <path id="DejaVuSans-79" d="M 2059 -325 
Q 1816 -950 1584 -1140 
Q 1353 -1331 966 -1331 
L 506 -1331 
L 506 -850 
L 844 -850 
Q 1081 -850 1212 -737 
Q 1344 -625 1503 -206 
L 1606 56 
L 191 3500 
L 800 3500 
L 1894 763 
L 2988 3500 
L 3597 3500 
L 2059 -325 
z
" transform="scale(0.015625)"/>
      </defs>
      <use xlink:href="#DejaVuSans-43"/>
      <use xlink:href="#DejaVuSans-6f" x="69.824219"/>
      <use xlink:href="#DejaVuSans-6d" x="131.005859"/>
      <use xlink:href="#DejaVuSans-6d" x="228.417969"/>
      <use xlink:href="#DejaVuSans-75" x="325.830078"/>
      <use xlink:href="#DejaVuSans-6e" x="389.208984"/>
      <use xlink:href="#DejaVuSans-69" x="452.587891"/>
      <use xlink:href="#DejaVuSans-74" x="480.371094"/>
      <use xlink:href="#DejaVuSans-79" x="519.580078"/>
     </g>
    </g>
   </g>
  </g>
 </g>
 <defs>
  <clipPath id="p0b7d1eab3c">
   <rect x="7.2" y="7.2" width="415.820026" height="443.52"/>
  </clipPath>
 </defs>
 <defs>
  <pattern id="h1b86b8cb13" patternUnits="userSpaceOnUse" x="0" y="0" width="72" height="72">
   <rect x="0" y="0" width="73" height="73" fill="#8a2be2"/>
   <path d="M -36 36 
L 36 108 
M -24 24 
L 48 96 
M -12 12 
L 60 84 
M 0 0 
L 72 72 
M 12 -12 
L 84 60 
M 24 -24 
L 96 48 
M 36 -36 
L 108 36 
" style="fill: #2d2d2d; stroke: #2d2d2d; stroke-width: 1.0; stroke-linecap: butt; stroke-linejoin: miter"/>
  </pattern>
  <pattern id="h3a01679173" patternUnits="userSpaceOnUse" x="0" y="0" width="72" height="72">
   <rect x="0" y="0" width="73" height="73" fill="#f0e68c"/>
   <path d="M -36 36 
L 36 -36 
M -24 48 
L 48 -24 
M -12 60 
L 60 -12 
M 0 72 
L 72 0 
M 12 84 
L 84 12 
M 24 96 
L 96 24 
M 36 108 
L 108 36 
" style="fill: #2d2d2d; stroke: #2d2d2d; stroke-width: 1.0; stroke-linecap: butt; stroke-linejoin: miter"/>
  </pattern>
  <pattern id="h93115d98ae" patternUnits="userSpaceOnUse" x="0" y="0" width="72" height="72">
   <rect x="0" y="0" width="73" height="73" fill="#bd89b7"/>
   <path d="M -36 36 
L 36 -36 
M -24 48 
L 48 -24 
M -12 60 
L 60 -12 
M 0 72 
L 72 0 
M 12 84 
L 84 12 
M 24 96 
L 96 24 
M 36 108 
L 108 36 
M -36 36 
L 36 108 
M -24 24 
L 48 96 
M -12 12 
L 60 84 
M 0 0 
L 72 72 
M 12 -12 
L 84 60 
M 24 -24 
L 96 48 
M 36 -36 
L 108 36 
" style="fill: #2d2d2d; stroke: #2d2d2d; stroke-width: 1.0; stroke-linecap: butt; stroke-linejoin: miter"/>
  </pattern>
  <pattern id="h177904b747" patternUnits="userSpaceOnUse" x="0" y="0" width="72" height="72">
   <rect x="0" y="0" width="73" height="73" fill="#8a2be2"/>
   <path d="M -36 36 
L 36 108 
M -30 30 
L 42 102 
M -24 24 
L 48 96 
M -18 18 
L 54 90 
M -12 12 
L 60 84 
M -6 6 
L 66 78 
M 0 0 
L 72 72 
M 6 -6 
L 78 66 
M 12 -12 
L 84 60 
M 18 -18 
L 90 54 
M 24 -24 
L 96 48 
M 30 -30 
L 102 42 
M 36 -36 
L 108 36 
" style="fill: #000000; stroke: #000000; stroke-width: 1.0; stroke-linecap: butt; stroke-linejoin: miter"/>
  </pattern>
  <pattern id="h6283bfa17a" patternUnits="userSpaceOnUse" x="0" y="0" width="72" height="72">
   <rect x="0" y="0" width="73" height="73" fill="#f0e68c"/>
   <path d="M -36 36 
L 36 -36 
M -30 42 
L 42 -30 
M -24 48 
L 48 -24 
M -18 54 
L 54 -18 
M -12 60 
L 60 -12 
M -6 66 
L 66 -6 
M 0 72 
L 72 0 
M 6 78 
L 78 6 
M 12 84 
L 84 12 
M 18 90 
L 90 18 
M 24 96 
L 96 24 
M 30 102 
L 102 30 
M 36 108 
L 108 36 
" style="fill: #000000; stroke: #000000; stroke-width: 1.0; stroke-linecap: butt; stroke-linejoin: miter"/>
  </pattern>
 </defs>
</svg>
